  0
SECTION
  2
BLOCKS
  0
ENDSEC
  0
SECTION
  2
ENTITIES
  0
LINE
  8
0
 10
-70.2025
 20
-57.8474
 11
-70.1902
 21
-57.8631
  0
LINE
  8
0
 10
-70.1902
 20
-57.8631
 11
-60.6259
 21
-70.0225
  0
LINE
  8
0
 10
-60.6259
 20
-70.0225
 11
-60.5623
 21
-70.1033
  0
LINE
  8
0
 10
-60.5623
 20
-70.1033
 11
-59.6722
 21
-71.2349
  0
LINE
  8
0
 10
-59.6722
 20
-71.2349
 11
-59.5116
 21
-71.6364
  0
LINE
  8
0
 10
-59.5116
 20
-71.6364
 11
-59.1476
 21
-72.5467
  0
LINE
  8
0
 10
-59.1476
 20
-72.5467
 11
-57.1989
 21
-75.3447
  0
LINE
  8
0
 10
-57.1989
 20
-75.3447
 11
-51.8122
 21
-81.7872
  0
LINE
  8
0
 10
-51.8122
 20
-81.7872
 11
-46.1438
 21
-88.5666
  0
LINE
  8
0
 10
-46.1438
 20
-88.5666
 11
-46.1204
 21
-88.5946
  0
LINE
  8
0
 10
-46.1204
 20
-88.5946
 11
-39.684
 21
-90.6226
  0
LINE
  8
0
 10
-39.684
 20
-90.6226
 11
-38.9087
 21
-90.8669
  0
LINE
  8
0
 10
-38.9087
 20
-90.8669
 11
-37.8926
 21
-90.7691
  0
LINE
  8
0
 10
-37.8926
 20
-90.7691
 11
-37.4984
 21
-90.7312
  0
LINE
  8
0
 10
-37.4984
 20
-90.7312
 11
-26.5799
 21
-83.0859
  0
LINE
  8
0
 10
-26.5799
 20
-83.0859
 11
-26.5799
 21
-83.0859
  0
LINE
  8
0
 10
-26.5799
 20
-83.0859
 11
-26.3229
 21
-83.0508
  0
LINE
  8
0
 10
-26.3229
 20
-83.0508
 11
-26.0814
 21
-83.0178
  0
LINE
  8
0
 10
-26.0814
 20
-83.0178
 11
-26.041
 21
-82.9989
  0
LINE
  8
0
 10
-26.041
 20
-82.9989
 11
-25.998
 21
-82.9789
  0
LINE
  8
0
 10
-25.998
 20
-82.9789
 11
-19.1133
 21
-79.7685
  0
LINE
  8
0
 10
-19.1133
 20
-79.7685
 11
-19.1129
 21
-79.7683
  0
LINE
  8
0
 10
-19.1129
 20
-79.7683
 11
-11.7835
 21
-76.3506
  0
LINE
  8
0
 10
-11.7835
 20
-76.3506
 11
-11.7835
 21
-76.3506
  0
LINE
  8
0
 10
-11.7835
 20
-76.3506
 11
-11.7321
 21
-76.3266
  0
LINE
  8
0
 10
-11.7321
 20
-76.3266
 11
-11.3928
 21
-75.9323
  0
LINE
  8
0
 10
-11.3928
 20
-75.9323
 11
-11.3928
 21
-75.9323
  0
LINE
  8
0
 10
-11.3928
 20
-75.9323
 11
-11.1814
 21
-75.6866
  0
LINE
  8
0
 10
-11.1814
 20
-75.6866
 11
-9.71672
 21
-69.3792
  0
LINE
  8
0
 10
-9.71672
 20
-69.3792
 11
-6.53208
 21
-55.6653
  0
LINE
  8
0
 10
-6.53208
 20
-55.6653
 11
8.36832
 21
-57.4674
  0
LINE
  8
0
 10
8.36832
 20
-57.4674
 11
14.5822
 21
-58.2189
  0
LINE
  8
0
 10
14.5822
 20
-58.2189
 11
22.2326
 21
-58.2189
  0
LINE
  8
0
 10
22.2326
 20
-58.2189
 11
34.9677
 21
-58.2189
  0
LINE
  8
0
 10
34.9677
 20
-58.2189
 11
36.8298
 21
-53.2166
  0
LINE
  8
0
 10
36.8298
 20
-53.2166
 11
37.9484
 21
-50.2115
  0
LINE
  8
0
 10
37.9484
 20
-50.2115
 11
43.7194
 21
-50.2115
  0
LINE
  8
0
 10
43.7194
 20
-50.2115
 11
51.4514
 21
-50.2115
  0
LINE
  8
0
 10
51.4514
 20
-50.2115
 11
56.4716
 21
-50.2115
  0
LINE
  8
0
 10
56.4716
 20
-50.2115
 11
83.5435
 21
-50.2115
  0
LINE
  8
0
 10
83.5435
 20
-50.2115
 11
87.8218
 21
-46.0789
  0
LINE
  8
0
 10
87.8218
 20
-46.0789
 11
90.5435
 21
-43.45
  0
LINE
  8
0
 10
90.5435
 20
-43.45
 11
90.5435
 21
40.1567
  0
LINE
  8
0
 10
90.5435
 20
40.1567
 11
86.1114
 21
43.995
  0
LINE
  8
0
 10
86.1114
 20
43.995
 11
83.5435
 21
46.2189
  0
LINE
  8
0
 10
83.5435
 20
46.2189
 11
55.1419
 21
46.2189
  0
LINE
  8
0
 10
55.1419
 20
46.2189
 11
52.5358
 21
46.2189
  0
LINE
  8
0
 10
52.5358
 20
46.2189
 11
41.0257
 21
46.2189
  0
LINE
  8
0
 10
41.0257
 20
46.2189
 11
35.5682
 21
46.2189
  0
LINE
  8
0
 10
35.5682
 20
46.2189
 11
32.7736
 21
54.5047
  0
LINE
  8
0
 10
32.7736
 20
54.5047
 11
31.5209
 21
58.2189
  0
LINE
  8
0
 10
31.5209
 20
58.2189
 11
20.7987
 21
58.2189
  0
LINE
  8
0
 10
20.7987
 20
58.2189
 11
20.7586
 21
58.2189
  0
LINE
  8
0
 10
20.7586
 20
58.2189
 11
14.6806
 21
58.2189
  0
LINE
  8
0
 10
14.6806
 20
58.2189
 11
12.1975
 21
60.1047
  0
LINE
  8
0
 10
12.1975
 20
60.1047
 11
10.9675
 21
61.0389
  0
LINE
  8
0
 10
10.9675
 20
61.0389
 11
0.637453
 21
61.0389
  0
LINE
  8
0
 10
0.637453
 20
61.0389
 11
-5.64637
 21
61.0389
  0
LINE
  8
0
 10
-5.64637
 20
61.0389
 11
-6.01444
 21
60.2541
  0
LINE
  8
0
 10
-6.01444
 20
60.2541
 11
-6.96892
 21
58.2189
  0
LINE
  8
0
 10
-6.96892
 20
58.2189
 11
-18.5352
 21
58.2189
  0
LINE
  8
0
 10
-18.5352
 20
58.2189
 11
-18.5656
 21
58.2189
  0
LINE
  8
0
 10
-18.5656
 20
58.2189
 11
-23.0151
 21
58.2189
  0
LINE
  8
0
 10
-23.0151
 20
58.2189
 11
-24.8463
 21
58.2189
  0
LINE
  8
0
 10
-24.8463
 20
58.2189
 11
-24.8693
 21
58.2189
  0
LINE
  8
0
 10
-24.8693
 20
58.2189
 11
-25.4255
 21
58.2189
  0
LINE
  8
0
 10
-25.4255
 20
58.2189
 11
-37.2915
 21
58.2189
  0
LINE
  8
0
 10
-37.2915
 20
58.2189
 11
-37.3163
 21
58.2189
  0
LINE
  8
0
 10
-37.3163
 20
58.2189
 11
-40.9446
 21
58.2189
  0
LINE
  8
0
 10
-40.9446
 20
58.2189
 11
-42.0452
 21
57.8647
  0
LINE
  8
0
 10
-42.0452
 20
57.8647
 11
-45.6437
 21
56.7067
  0
LINE
  8
0
 10
-45.6437
 20
56.7067
 11
-52.6437
 21
49.7067
  0
LINE
  8
0
 10
-52.6437
 20
49.7067
 11
-53.6829
 21
45.448
  0
LINE
  8
0
 10
-53.6829
 20
45.448
 11
-56.2782
 21
34.8111
  0
LINE
  8
0
 10
-56.2782
 20
34.8111
 11
-56.8539
 21
31.5225
  0
LINE
  8
0
 10
-56.8539
 20
31.5225
 11
-57.0844
 21
30.2059
  0
LINE
  8
0
 10
-57.0844
 20
30.2059
 11
-57.7272
 21
24.5299
  0
LINE
  8
0
 10
-57.7272
 20
24.5299
 11
-58.9658
 21
13.592
  0
LINE
  8
0
 10
-58.9658
 20
13.592
 11
-59.0616
 21
11.8692
  0
LINE
  8
0
 10
-59.0616
 20
11.8692
 11
-59.2407
 21
8.65
  0
LINE
  8
0
 10
-59.2407
 20
8.65
 11
-59.2407
 21
-8.65
  0
LINE
  8
0
 10
-59.2407
 20
-8.65
 11
-59.0616
 21
-11.8692
  0
LINE
  8
0
 10
-59.0616
 20
-11.8692
 11
-58.9658
 21
-13.592
  0
LINE
  8
0
 10
-58.9658
 20
-13.592
 11
-57.7272
 21
-24.5299
  0
LINE
  8
0
 10
-57.7272
 20
-24.5299
 11
-57.0914
 21
-30.1438
  0
LINE
  8
0
 10
-57.0914
 20
-30.1438
 11
-57.9546
 21
-34.7936
  0
LINE
  8
0
 10
-57.9546
 20
-34.7936
 11
-59.1758
 21
-41.3726
  0
LINE
  8
0
 10
-59.1758
 20
-41.3726
 11
-64.8606
 21
-45.3531
  0
LINE
  8
0
 10
-64.8606
 20
-45.3531
 11
-68.9069
 21
-48.1864
  0
LINE
  8
0
 10
-68.9069
 20
-48.1864
 11
-69.3497
 21
-48.6485
  0
LINE
  8
0
 10
-69.3497
 20
-48.6485
 11
-69.3498
 21
-48.6485
  0
LINE
  8
0
 10
-69.3498
 20
-48.6485
 11
-69.6504
 21
-48.9623
  0
LINE
  8
0
 10
-69.6504
 20
-48.9623
 11
-70.092
 21
-56.0686
  0
LINE
  8
0
 10
-70.092
 20
-56.0686
 11
-70.2025
 21
-57.8474
  0
LINE
  8
0
 10
-67.9386
 20
-56.1284
 11
-67.8749
 21
-55.1035
  0
LINE
  8
0
 10
-67.8749
 20
-55.1035
 11
-67.8749
 21
-55.1034
  0
LINE
  8
0
 10
-67.8749
 20
-55.1034
 11
-67.5608
 21
-50.0487
  0
LINE
  8
0
 10
-67.5608
 20
-50.0487
 11
-63.5675
 21
-47.2525
  0
LINE
  8
0
 10
-63.5675
 20
-47.2525
 11
-58.0528
 21
-43.3911
  0
LINE
  8
0
 10
-58.0528
 20
-43.3911
 11
-57.9282
 21
-43.7748
  0
LINE
  8
0
 10
-57.9282
 20
-43.7748
 11
-57.5257
 21
-44.4719
  0
LINE
  8
0
 10
-57.5257
 20
-44.4719
 11
-56.9872
 21
-45.07
  0
LINE
  8
0
 10
-56.9872
 20
-45.07
 11
-56.336
 21
-45.5431
  0
LINE
  8
0
 10
-56.336
 20
-45.5431
 11
-55.6007
 21
-45.8705
  0
LINE
  8
0
 10
-55.6007
 20
-45.8705
 11
-54.8134
 21
-46.0378
  0
LINE
  8
0
 10
-54.8134
 20
-46.0378
 11
-54.0086
 21
-46.0378
  0
LINE
  8
0
 10
-54.0086
 20
-46.0378
 11
-53.2213
 21
-45.8705
  0
LINE
  8
0
 10
-53.2213
 20
-45.8705
 11
-52.486
 21
-45.5431
  0
LINE
  8
0
 10
-52.486
 20
-45.5431
 11
-51.8348
 21
-45.07
  0
LINE
  8
0
 10
-51.8348
 20
-45.07
 11
-51.2963
 21
-44.4719
  0
LINE
  8
0
 10
-51.2963
 20
-44.4719
 11
-50.8939
 21
-43.7748
  0
LINE
  8
0
 10
-50.8939
 20
-43.7748
 11
-50.6451
 21
-43.0094
  0
LINE
  8
0
 10
-50.6451
 20
-43.0094
 11
-50.561
 21
-42.2089
  0
LINE
  8
0
 10
-50.561
 20
-42.2089
 11
-50.6451
 21
-41.4084
  0
LINE
  8
0
 10
-50.6451
 20
-41.4084
 11
-50.8939
 21
-40.643
  0
LINE
  8
0
 10
-50.8939
 20
-40.643
 11
-51.2963
 21
-39.9459
  0
LINE
  8
0
 10
-51.2963
 20
-39.9459
 11
-51.8348
 21
-39.3478
  0
LINE
  8
0
 10
-51.8348
 20
-39.3478
 11
-52.486
 21
-38.8747
  0
LINE
  8
0
 10
-52.486
 20
-38.8747
 11
-53.2213
 21
-38.5473
  0
LINE
  8
0
 10
-53.2213
 20
-38.5473
 11
-54.0086
 21
-38.38
  0
LINE
  8
0
 10
-54.0086
 20
-38.38
 11
-54.8134
 21
-38.38
  0
LINE
  8
0
 10
-54.8134
 20
-38.38
 11
-55.6007
 21
-38.5473
  0
LINE
  8
0
 10
-55.6007
 20
-38.5473
 11
-56.223
 21
-38.8244
  0
LINE
  8
0
 10
-56.223
 20
-38.8244
 11
-56.2185
 21
-38.7927
  0
LINE
  8
0
 10
-56.2185
 20
-38.7927
 11
-54.9844
 21
-30.2059
  0
LINE
  8
0
 10
-54.9844
 20
-30.2059
 11
-54.9844
 21
-30.1059
  0
LINE
  8
0
 10
-54.9844
 20
-30.1059
 11
-56.332
 21
-18.2054
  0
LINE
  8
0
 10
-56.332
 20
-18.2054
 11
-56.8658
 21
-13.492
  0
LINE
  8
0
 10
-56.8658
 20
-13.492
 11
-57.0528
 21
-10.1313
  0
LINE
  8
0
 10
-57.0528
 20
-10.1313
 11
-57.1407
 21
-8.54999
  0
LINE
  8
0
 10
-57.1407
 20
-8.54999
 11
-57.1407
 21
8.54999
  0
LINE
  8
0
 10
-57.1407
 20
8.54999
 11
-57.0528
 21
10.1313
  0
LINE
  8
0
 10
-57.0528
 20
10.1313
 11
-56.8658
 21
13.492
  0
LINE
  8
0
 10
-56.8658
 20
13.492
 11
-56.332
 21
18.2054
  0
LINE
  8
0
 10
-56.332
 20
18.2054
 11
-54.9844
 21
30.1059
  0
LINE
  8
0
 10
-54.9844
 20
30.1059
 11
-54.7663
 21
31.3519
  0
LINE
  8
0
 10
-54.7663
 20
31.3519
 11
-54.1783
 21
34.7111
  0
LINE
  8
0
 10
-54.1783
 20
34.7111
 11
-53.3648
 21
38.0451
  0
LINE
  8
0
 10
-53.3648
 20
38.0451
 11
-50.5437
 21
49.6067
  0
LINE
  8
0
 10
-50.5437
 20
49.6067
 11
-47.1811
 21
52.9694
  0
LINE
  8
0
 10
-47.1811
 20
52.9694
 11
-47.261
 21
52.2089
  0
LINE
  8
0
 10
-47.261
 20
52.2089
 11
-47.1769
 21
51.4084
  0
LINE
  8
0
 10
-47.1769
 20
51.4084
 11
-46.9282
 21
50.643
  0
LINE
  8
0
 10
-46.9282
 20
50.643
 11
-46.5257
 21
49.9459
  0
LINE
  8
0
 10
-46.5257
 20
49.9459
 11
-45.9872
 21
49.3478
  0
LINE
  8
0
 10
-45.9872
 20
49.3478
 11
-45.336
 21
48.8747
  0
LINE
  8
0
 10
-45.336
 20
48.8747
 11
-44.6007
 21
48.5473
  0
LINE
  8
0
 10
-44.6007
 20
48.5473
 11
-43.8134
 21
48.38
  0
LINE
  8
0
 10
-43.8134
 20
48.38
 11
-43.0086
 21
48.38
  0
LINE
  8
0
 10
-43.0086
 20
48.38
 11
-42.2213
 21
48.5473
  0
LINE
  8
0
 10
-42.2213
 20
48.5473
 11
-41.486
 21
48.8747
  0
LINE
  8
0
 10
-41.486
 20
48.8747
 11
-40.8348
 21
49.3478
  0
LINE
  8
0
 10
-40.8348
 20
49.3478
 11
-40.2963
 21
49.9459
  0
LINE
  8
0
 10
-40.2963
 20
49.9459
 11
-39.8939
 21
50.643
  0
LINE
  8
0
 10
-39.8939
 20
50.643
 11
-39.6451
 21
51.4084
  0
LINE
  8
0
 10
-39.6451
 20
51.4084
 11
-39.561
 21
52.2089
  0
LINE
  8
0
 10
-39.561
 20
52.2089
 11
-39.6451
 21
53.0094
  0
LINE
  8
0
 10
-39.6451
 20
53.0094
 11
-39.8939
 21
53.7748
  0
LINE
  8
0
 10
-39.8939
 20
53.7748
 11
-40.2963
 21
54.4719
  0
LINE
  8
0
 10
-40.2963
 20
54.4719
 11
-40.8348
 21
55.07
  0
LINE
  8
0
 10
-40.8348
 20
55.07
 11
-41.1592
 21
55.3056
  0
LINE
  8
0
 10
-41.1592
 20
55.3056
 11
-40.5657
 21
55.4002
  0
LINE
  8
0
 10
-40.5657
 20
55.4002
 11
-28.1555
 21
55.4002
  0
LINE
  8
0
 10
-28.1555
 20
55.4002
 11
-25.0887
 21
55.4002
  0
LINE
  8
0
 10
-25.0887
 20
55.4002
 11
-23.2754
 21
55.4002
  0
LINE
  8
0
 10
-23.2754
 20
55.4002
 11
-22.7299
 21
55.4002
  0
LINE
  8
0
 10
-22.7299
 20
55.4002
 11
-10.4573
 21
55.4002
  0
LINE
  8
0
 10
-10.4573
 20
55.4002
 11
-6.64168
 21
55.4002
  0
LINE
  8
0
 10
-6.64168
 20
55.4002
 11
-6.23869
 21
56.2962
  0
LINE
  8
0
 10
-6.23869
 20
56.2962
 11
-5.37325
 21
58.2202
  0
LINE
  8
0
 10
-5.37325
 20
58.2202
 11
5.87002
 21
58.2202
  0
LINE
  8
0
 10
5.87002
 20
58.2202
 11
11.0475
 21
58.2202
  0
LINE
  8
0
 10
11.0475
 20
58.2202
 11
13.3535
 21
56.4401
  0
LINE
  8
0
 10
13.3535
 20
56.4401
 11
14.7006
 21
55.4002
  0
LINE
  8
0
 10
14.7006
 20
55.4002
 11
26.1526
 21
55.4002
  0
LINE
  8
0
 10
26.1526
 20
55.4002
 11
31.5408
 21
55.4002
  0
LINE
  8
0
 10
31.5408
 20
55.4002
 11
32.7493
 21
51.763
  0
LINE
  8
0
 10
32.7493
 20
51.763
 11
35.528
 21
43.4002
  0
LINE
  8
0
 10
35.528
 20
43.4002
 11
47.4691
 21
43.4002
  0
LINE
  8
0
 10
47.4691
 20
43.4002
 11
52.6309
 21
43.4002
  0
LINE
  8
0
 10
52.6309
 20
43.4002
 11
58.1251
 21
43.4002
  0
LINE
  8
0
 10
58.1251
 20
43.4002
 11
60.7101
 21
43.4002
  0
LINE
  8
0
 10
60.7101
 20
43.4002
 11
81.7605
 21
43.4002
  0
LINE
  8
0
 10
81.7605
 20
43.4002
 11
81.6204
 21
43.3705
  0
LINE
  8
0
 10
81.6204
 20
43.3705
 11
80.8851
 21
43.0431
  0
LINE
  8
0
 10
80.8851
 20
43.0431
 11
80.234
 21
42.57
  0
LINE
  8
0
 10
80.234
 20
42.57
 11
79.6954
 21
41.9719
  0
LINE
  8
0
 10
79.6954
 20
41.9719
 11
79.293
 21
41.2748
  0
LINE
  8
0
 10
79.293
 20
41.2748
 11
79.0443
 21
40.5094
  0
LINE
  8
0
 10
79.0443
 20
40.5094
 11
78.9601
 21
39.7089
  0
LINE
  8
0
 10
78.9601
 20
39.7089
 11
79.0443
 21
38.9084
  0
LINE
  8
0
 10
79.0443
 20
38.9084
 11
79.293
 21
38.143
  0
LINE
  8
0
 10
79.293
 20
38.143
 11
79.6954
 21
37.4459
  0
LINE
  8
0
 10
79.6954
 20
37.4459
 11
80.234
 21
36.8478
  0
LINE
  8
0
 10
80.234
 20
36.8478
 11
80.8851
 21
36.3747
  0
LINE
  8
0
 10
80.8851
 20
36.3747
 11
81.6204
 21
36.0473
  0
LINE
  8
0
 10
81.6204
 20
36.0473
 11
82.4077
 21
35.88
  0
LINE
  8
0
 10
82.4077
 20
35.88
 11
83.2126
 21
35.88
  0
LINE
  8
0
 10
83.2126
 20
35.88
 11
83.9998
 21
36.0473
  0
LINE
  8
0
 10
83.9998
 20
36.0473
 11
84.7351
 21
36.3747
  0
LINE
  8
0
 10
84.7351
 20
36.3747
 11
85.3863
 21
36.8478
  0
LINE
  8
0
 10
85.3863
 20
36.8478
 11
85.9248
 21
37.4459
  0
LINE
  8
0
 10
85.9248
 20
37.4459
 11
86.3273
 21
38.143
  0
LINE
  8
0
 10
86.3273
 20
38.143
 11
86.576
 21
38.9084
  0
LINE
  8
0
 10
86.576
 20
38.9084
 11
86.6601
 21
39.7089
  0
LINE
  8
0
 10
86.6601
 20
39.7089
 11
86.576
 21
40.5094
  0
LINE
  8
0
 10
86.576
 20
40.5094
 11
86.4955
 21
40.7571
  0
LINE
  8
0
 10
86.4955
 20
40.7571
 11
88.4435
 21
39.0701
  0
LINE
  8
0
 10
88.4435
 20
39.0701
 11
88.4435
 21
29.4017
  0
LINE
  8
0
 10
88.4435
 20
29.4017
 11
88.4435
 21
24.3033
  0
LINE
  8
0
 10
88.4435
 20
24.3033
 11
88.4435
 21
21.5232
  0
LINE
  8
0
 10
88.4435
 20
21.5232
 11
88.4435
 21
18.87
  0
LINE
  8
0
 10
88.4435
 20
18.87
 11
88.4435
 21
11.4095
  0
LINE
  8
0
 10
88.4435
 20
11.4095
 11
88.4435
 21
2.38796
  0
LINE
  8
0
 10
88.4435
 20
2.38796
 11
88.4435
 21
0.757682
  0
LINE
  8
0
 10
88.4435
 20
0.757682
 11
88.4435
 21
-3.5
  0
LINE
  8
0
 10
88.4435
 20
-3.5
 11
88.4435
 21
-20.5
  0
LINE
  8
0
 10
88.4435
 20
-20.5
 11
88.4435
 21
-24.7577
  0
LINE
  8
0
 10
88.4435
 20
-24.7577
 11
88.4435
 21
-26.388
  0
LINE
  8
0
 10
88.4435
 20
-26.388
 11
88.4435
 21
-35.4095
  0
LINE
  8
0
 10
88.4435
 20
-35.4095
 11
88.4435
 21
-42.8358
  0
LINE
  8
0
 10
88.4435
 20
-42.8358
 11
86.6458
 21
-44.5722
  0
LINE
  8
0
 10
86.6458
 20
-44.5722
 11
86.576
 21
-43.9084
  0
LINE
  8
0
 10
86.576
 20
-43.9084
 11
86.3273
 21
-43.143
  0
LINE
  8
0
 10
86.3273
 20
-43.143
 11
85.9248
 21
-42.4459
  0
LINE
  8
0
 10
85.9248
 20
-42.4459
 11
85.3863
 21
-41.8478
  0
LINE
  8
0
 10
85.3863
 20
-41.8478
 11
84.7351
 21
-41.3747
  0
LINE
  8
0
 10
84.7351
 20
-41.3747
 11
83.9998
 21
-41.0473
  0
LINE
  8
0
 10
83.9998
 20
-41.0473
 11
83.2126
 21
-40.88
  0
LINE
  8
0
 10
83.2126
 20
-40.88
 11
82.4077
 21
-40.88
  0
LINE
  8
0
 10
82.4077
 20
-40.88
 11
81.6204
 21
-41.0473
  0
LINE
  8
0
 10
81.6204
 20
-41.0473
 11
80.8851
 21
-41.3747
  0
LINE
  8
0
 10
80.8851
 20
-41.3747
 11
80.234
 21
-41.8478
  0
LINE
  8
0
 10
80.234
 20
-41.8478
 11
79.6954
 21
-42.4459
  0
LINE
  8
0
 10
79.6954
 20
-42.4459
 11
79.293
 21
-43.143
  0
LINE
  8
0
 10
79.293
 20
-43.143
 11
79.0443
 21
-43.9084
  0
LINE
  8
0
 10
79.0443
 20
-43.9084
 11
78.9601
 21
-44.7089
  0
LINE
  8
0
 10
78.9601
 20
-44.7089
 11
79.0443
 21
-45.5094
  0
LINE
  8
0
 10
79.0443
 20
-45.5094
 11
79.293
 21
-46.2748
  0
LINE
  8
0
 10
79.293
 20
-46.2748
 11
79.6954
 21
-46.9719
  0
LINE
  8
0
 10
79.6954
 20
-46.9719
 11
80.234
 21
-47.57
  0
LINE
  8
0
 10
80.234
 20
-47.57
 11
80.3653
 21
-47.6654
  0
LINE
  8
0
 10
80.3653
 20
-47.6654
 11
60.7101
 21
-47.6654
  0
LINE
  8
0
 10
60.7101
 20
-47.6654
 11
56.0418
 21
-47.6654
  0
LINE
  8
0
 10
56.0418
 20
-47.6654
 11
51.567
 21
-47.6654
  0
LINE
  8
0
 10
51.567
 20
-47.6654
 11
43.5224
 21
-47.6654
  0
LINE
  8
0
 10
43.5224
 20
-47.6654
 11
34.4831
 21
-47.6654
  0
LINE
  8
0
 10
34.4831
 20
-47.6654
 11
34.3942
 21
-47.9385
  0
LINE
  8
0
 10
34.3942
 20
-47.9385
 11
34.3147
 21
-48.183
  0
LINE
  8
0
 10
34.3147
 20
-48.183
 11
34.3386
 21
-49.2077
  0
LINE
  8
0
 10
34.3386
 20
-49.2077
 11
34.361
 21
-50.1637
  0
LINE
  8
0
 10
34.361
 20
-50.1637
 11
34.3621
 21
-50.2115
  0
LINE
  8
0
 10
34.3621
 20
-50.2115
 11
34.3621
 21
-50.2115
  0
LINE
  8
0
 10
34.3621
 20
-50.2115
 11
34.4124
 21
-50.2115
  0
LINE
  8
0
 10
34.4124
 20
-50.2115
 11
35.9957
 21
-50.2115
  0
LINE
  8
0
 10
35.9957
 20
-50.2115
 11
35.4208
 21
-51.7083
  0
LINE
  8
0
 10
35.4208
 20
-51.7083
 11
34.0028
 21
-55.4002
  0
LINE
  8
0
 10
34.0028
 20
-55.4002
 11
27.8171
 21
-55.4002
  0
LINE
  8
0
 10
27.8171
 20
-55.4002
 11
14.7991
 21
-55.4002
  0
LINE
  8
0
 10
14.7991
 20
-55.4002
 11
0.152562
 21
-53.8167
  0
LINE
  8
0
 10
0.152562
 20
-53.8167
 11
-6.87047
 21
-53.0573
  0
LINE
  8
0
 10
-6.87047
 20
-53.0573
 11
-6.89913
 21
-53.0624
  0
LINE
  8
0
 10
-6.89913
 20
-53.0624
 11
-6.96559
 21
-53.0741
  0
LINE
  8
0
 10
-6.96559
 20
-53.0741
 11
-6.96559
 21
-53.0741
  0
LINE
  8
0
 10
-6.96559
 20
-53.0741
 11
-7.25249
 21
-53.468
  0
LINE
  8
0
 10
-7.25249
 20
-53.468
 11
-7.37621
 21
-53.6378
  0
LINE
  8
0
 10
-7.37621
 20
-53.6378
 11
-9.44222
 21
-61.5767
  0
LINE
  8
0
 10
-9.44222
 20
-61.5767
 11
-11.8451
 21
-70.8102
  0
LINE
  8
0
 10
-11.8451
 20
-70.8102
 11
-12.1836
 21
-70.2239
  0
LINE
  8
0
 10
-12.1836
 20
-70.2239
 11
-12.7222
 21
-69.6257
  0
LINE
  8
0
 10
-12.7222
 20
-69.6257
 11
-13.3733
 21
-69.1527
  0
LINE
  8
0
 10
-13.3733
 20
-69.1527
 11
-14.1086
 21
-68.8253
  0
LINE
  8
0
 10
-14.1086
 20
-68.8253
 11
-14.8959
 21
-68.6579
  0
LINE
  8
0
 10
-14.8959
 20
-68.6579
 11
-15.7008
 21
-68.6579
  0
LINE
  8
0
 10
-15.7008
 20
-68.6579
 11
-16.4881
 21
-68.8253
  0
LINE
  8
0
 10
-16.4881
 20
-68.8253
 11
-17.2233
 21
-69.1527
  0
LINE
  8
0
 10
-17.2233
 20
-69.1527
 11
-17.8745
 21
-69.6257
  0
LINE
  8
0
 10
-17.8745
 20
-69.6257
 11
-18.4131
 21
-70.2239
  0
LINE
  8
0
 10
-18.4131
 20
-70.2239
 11
-18.8155
 21
-70.9209
  0
LINE
  8
0
 10
-18.8155
 20
-70.9209
 11
-19.0642
 21
-71.6864
  0
LINE
  8
0
 10
-19.0642
 20
-71.6864
 11
-19.1483
 21
-72.4868
  0
LINE
  8
0
 10
-19.1483
 20
-72.4868
 11
-19.0642
 21
-73.2873
  0
LINE
  8
0
 10
-19.0642
 20
-73.2873
 11
-18.8155
 21
-74.0528
  0
LINE
  8
0
 10
-18.8155
 20
-74.0528
 11
-18.4131
 21
-74.7498
  0
LINE
  8
0
 10
-18.4131
 20
-74.7498
 11
-17.8745
 21
-75.348
  0
LINE
  8
0
 10
-17.8745
 20
-75.348
 11
-17.2233
 21
-75.821
  0
LINE
  8
0
 10
-17.2233
 20
-75.821
 11
-16.7834
 21
-76.0169
  0
LINE
  8
0
 10
-16.7834
 20
-76.0169
 11
-20.698
 21
-77.8423
  0
LINE
  8
0
 10
-20.698
 20
-77.8423
 11
-26.4504
 21
-80.5248
  0
LINE
  8
0
 10
-26.4504
 20
-80.5248
 11
-26.7028
 21
-80.5532
  0
LINE
  8
0
 10
-26.7028
 20
-80.5532
 11
-27.0192
 21
-80.5888
  0
LINE
  8
0
 10
-27.0192
 20
-80.5888
 11
-27.0484
 21
-80.6092
  0
LINE
  8
0
 10
-27.0484
 20
-80.6092
 11
-27.0872
 21
-80.6363
  0
LINE
  8
0
 10
-27.0872
 20
-80.6363
 11
-32.045
 21
-84.1078
  0
LINE
  8
0
 10
-32.045
 20
-84.1078
 11
-36.2241
 21
-87.0341
  0
LINE
  8
0
 10
-36.2241
 20
-87.0341
 11
-40.8384
 21
-87.9008
  0
LINE
  8
0
 10
-40.8384
 20
-87.9008
 11
-44.2288
 21
-86.9693
  0
LINE
  8
0
 10
-44.2288
 20
-86.9693
 11
-49.83
 21
-80.1297
  0
LINE
  8
0
 10
-49.83
 20
-80.1297
 11
-55.042
 21
-73.7655
  0
LINE
  8
0
 10
-55.042
 20
-73.7655
 11
-55.6766
 21
-72.5316
  0
LINE
  8
0
 10
-55.6766
 20
-72.5316
 11
-57.177
 21
-70.0878
  0
LINE
  8
0
 10
-57.177
 20
-70.0878
 11
-57.4083
 21
-69.5159
  0
LINE
  8
0
 10
-57.4083
 20
-69.5159
 11
-57.4673
 21
-69.4409
  0
LINE
  8
0
 10
-57.4673
 20
-69.4409
 11
-66.2829
 21
-58.2334
  0
LINE
  8
0
 10
-66.2829
 20
-58.2334
 11
-67.9386
 21
-56.1284
  0
LINE
  8
0
 10
-56.111
 20
-42.2089
 11
-56.0739
 21
-41.8555
  0
LINE
  8
0
 10
-56.0739
 20
-41.8555
 11
-55.964
 21
-41.5175
  0
LINE
  8
0
 10
-55.964
 20
-41.5175
 11
-55.7863
 21
-41.2097
  0
LINE
  8
0
 10
-55.7863
 20
-41.2097
 11
-55.5485
 21
-40.9456
  0
LINE
  8
0
 10
-55.5485
 20
-40.9456
 11
-55.261
 21
-40.7367
  0
LINE
  8
0
 10
-55.261
 20
-40.7367
 11
-54.9363
 21
-40.5921
  0
LINE
  8
0
 10
-54.9363
 20
-40.5921
 11
-54.5887
 21
-40.5182
  0
LINE
  8
0
 10
-54.5887
 20
-40.5182
 11
-54.2333
 21
-40.5182
  0
LINE
  8
0
 10
-54.2333
 20
-40.5182
 11
-53.8857
 21
-40.5921
  0
LINE
  8
0
 10
-53.8857
 20
-40.5921
 11
-53.561
 21
-40.7367
  0
LINE
  8
0
 10
-53.561
 20
-40.7367
 11
-53.2735
 21
-40.9456
  0
LINE
  8
0
 10
-53.2735
 20
-40.9456
 11
-53.0357
 21
-41.2097
  0
LINE
  8
0
 10
-53.0357
 20
-41.2097
 11
-52.858
 21
-41.5175
  0
LINE
  8
0
 10
-52.858
 20
-41.5175
 11
-52.7482
 21
-41.8555
  0
LINE
  8
0
 10
-52.7482
 20
-41.8555
 11
-52.711
 21
-42.2089
  0
LINE
  8
0
 10
-52.711
 20
-42.2089
 11
-52.7482
 21
-42.5624
  0
LINE
  8
0
 10
-52.7482
 20
-42.5624
 11
-52.858
 21
-42.9004
  0
LINE
  8
0
 10
-52.858
 20
-42.9004
 11
-53.0357
 21
-43.2081
  0
LINE
  8
0
 10
-53.0357
 20
-43.2081
 11
-53.2735
 21
-43.4722
  0
LINE
  8
0
 10
-53.2735
 20
-43.4722
 11
-53.561
 21
-43.6811
  0
LINE
  8
0
 10
-53.561
 20
-43.6811
 11
-53.8857
 21
-43.8257
  0
LINE
  8
0
 10
-53.8857
 20
-43.8257
 11
-54.2333
 21
-43.8996
  0
LINE
  8
0
 10
-54.2333
 20
-43.8996
 11
-54.5887
 21
-43.8996
  0
LINE
  8
0
 10
-54.5887
 20
-43.8996
 11
-54.9363
 21
-43.8257
  0
LINE
  8
0
 10
-54.9363
 20
-43.8257
 11
-55.261
 21
-43.6811
  0
LINE
  8
0
 10
-55.261
 20
-43.6811
 11
-55.5485
 21
-43.4722
  0
LINE
  8
0
 10
-55.5485
 20
-43.4722
 11
-55.7863
 21
-43.2081
  0
LINE
  8
0
 10
-55.7863
 20
-43.2081
 11
-55.964
 21
-42.9004
  0
LINE
  8
0
 10
-55.964
 20
-42.9004
 11
-56.0739
 21
-42.5624
  0
LINE
  8
0
 10
-56.0739
 20
-42.5624
 11
-56.111
 21
-42.2089
  0
LINE
  8
0
 10
-45.111
 20
52.2089
 11
-45.0739
 21
52.5624
  0
LINE
  8
0
 10
-45.0739
 20
52.5624
 11
-44.964
 21
52.9004
  0
LINE
  8
0
 10
-44.964
 20
52.9004
 11
-44.7863
 21
53.2081
  0
LINE
  8
0
 10
-44.7863
 20
53.2081
 11
-44.5485
 21
53.4722
  0
LINE
  8
0
 10
-44.5485
 20
53.4722
 11
-44.261
 21
53.6811
  0
LINE
  8
0
 10
-44.261
 20
53.6811
 11
-43.9363
 21
53.8257
  0
LINE
  8
0
 10
-43.9363
 20
53.8257
 11
-43.5887
 21
53.8996
  0
LINE
  8
0
 10
-43.5887
 20
53.8996
 11
-43.2333
 21
53.8996
  0
LINE
  8
0
 10
-43.2333
 20
53.8996
 11
-42.8857
 21
53.8257
  0
LINE
  8
0
 10
-42.8857
 20
53.8257
 11
-42.561
 21
53.6811
  0
LINE
  8
0
 10
-42.561
 20
53.6811
 11
-42.2735
 21
53.4722
  0
LINE
  8
0
 10
-42.2735
 20
53.4722
 11
-42.0357
 21
53.2081
  0
LINE
  8
0
 10
-42.0357
 20
53.2081
 11
-41.858
 21
52.9004
  0
LINE
  8
0
 10
-41.858
 20
52.9004
 11
-41.7482
 21
52.5624
  0
LINE
  8
0
 10
-41.7482
 20
52.5624
 11
-41.711
 21
52.2089
  0
LINE
  8
0
 10
-41.711
 20
52.2089
 11
-41.7482
 21
51.8555
  0
LINE
  8
0
 10
-41.7482
 20
51.8555
 11
-41.858
 21
51.5175
  0
LINE
  8
0
 10
-41.858
 20
51.5175
 11
-42.0357
 21
51.2097
  0
LINE
  8
0
 10
-42.0357
 20
51.2097
 11
-42.2735
 21
50.9456
  0
LINE
  8
0
 10
-42.2735
 20
50.9456
 11
-42.561
 21
50.7367
  0
LINE
  8
0
 10
-42.561
 20
50.7367
 11
-42.8857
 21
50.5921
  0
LINE
  8
0
 10
-42.8857
 20
50.5921
 11
-43.2333
 21
50.5182
  0
LINE
  8
0
 10
-43.2333
 20
50.5182
 11
-43.5887
 21
50.5182
  0
LINE
  8
0
 10
-43.5887
 20
50.5182
 11
-43.9363
 21
50.5921
  0
LINE
  8
0
 10
-43.9363
 20
50.5921
 11
-44.261
 21
50.7367
  0
LINE
  8
0
 10
-44.261
 20
50.7367
 11
-44.5485
 21
50.9456
  0
LINE
  8
0
 10
-44.5485
 20
50.9456
 11
-44.7863
 21
51.2097
  0
LINE
  8
0
 10
-44.7863
 20
51.2097
 11
-44.964
 21
51.5175
  0
LINE
  8
0
 10
-44.964
 20
51.5175
 11
-45.0739
 21
51.8555
  0
LINE
  8
0
 10
-45.0739
 20
51.8555
 11
-45.111
 21
52.2089
  0
LINE
  8
0
 10
-16.9983
 20
-72.4868
 11
-16.9612
 21
-72.1334
  0
LINE
  8
0
 10
-16.9612
 20
-72.1334
 11
-16.8514
 21
-71.7954
  0
LINE
  8
0
 10
-16.8514
 20
-71.7954
 11
-16.6737
 21
-71.4876
  0
LINE
  8
0
 10
-16.6737
 20
-71.4876
 11
-16.4359
 21
-71.2235
  0
LINE
  8
0
 10
-16.4359
 20
-71.2235
 11
-16.1483
 21
-71.0146
  0
LINE
  8
0
 10
-16.1483
 20
-71.0146
 11
-15.8237
 21
-70.8701
  0
LINE
  8
0
 10
-15.8237
 20
-70.8701
 11
-15.476
 21
-70.7962
  0
LINE
  8
0
 10
-15.476
 20
-70.7962
 11
-15.1206
 21
-70.7962
  0
LINE
  8
0
 10
-15.1206
 20
-70.7962
 11
-14.773
 21
-70.8701
  0
LINE
  8
0
 10
-14.773
 20
-70.8701
 11
-14.4483
 21
-71.0146
  0
LINE
  8
0
 10
-14.4483
 20
-71.0146
 11
-14.1608
 21
-71.2235
  0
LINE
  8
0
 10
-14.1608
 20
-71.2235
 11
-13.923
 21
-71.4876
  0
LINE
  8
0
 10
-13.923
 20
-71.4876
 11
-13.7453
 21
-71.7954
  0
LINE
  8
0
 10
-13.7453
 20
-71.7954
 11
-13.6355
 21
-72.1334
  0
LINE
  8
0
 10
-13.6355
 20
-72.1334
 11
-13.5983
 21
-72.4868
  0
LINE
  8
0
 10
-13.5983
 20
-72.4868
 11
-13.6355
 21
-72.8403
  0
LINE
  8
0
 10
-13.6355
 20
-72.8403
 11
-13.7453
 21
-73.1783
  0
LINE
  8
0
 10
-13.7453
 20
-73.1783
 11
-13.923
 21
-73.4861
  0
LINE
  8
0
 10
-13.923
 20
-73.4861
 11
-14.1608
 21
-73.7502
  0
LINE
  8
0
 10
-14.1608
 20
-73.7502
 11
-14.4483
 21
-73.9591
  0
LINE
  8
0
 10
-14.4483
 20
-73.9591
 11
-14.773
 21
-74.1036
  0
LINE
  8
0
 10
-14.773
 20
-74.1036
 11
-15.1206
 21
-74.1775
  0
LINE
  8
0
 10
-15.1206
 20
-74.1775
 11
-15.476
 21
-74.1775
  0
LINE
  8
0
 10
-15.476
 20
-74.1775
 11
-15.8237
 21
-74.1036
  0
LINE
  8
0
 10
-15.8237
 20
-74.1036
 11
-16.1483
 21
-73.9591
  0
LINE
  8
0
 10
-16.1483
 20
-73.9591
 11
-16.4359
 21
-73.7502
  0
LINE
  8
0
 10
-16.4359
 20
-73.7502
 11
-16.6737
 21
-73.4861
  0
LINE
  8
0
 10
-16.6737
 20
-73.4861
 11
-16.8514
 21
-73.1783
  0
LINE
  8
0
 10
-16.8514
 20
-73.1783
 11
-16.9612
 21
-72.8403
  0
LINE
  8
0
 10
-16.9612
 20
-72.8403
 11
-16.9983
 21
-72.4868
  0
LINE
  8
0
 10
81.1101
 20
-44.7089
 11
81.1473
 21
-44.3555
  0
LINE
  8
0
 10
81.1473
 20
-44.3555
 11
81.2571
 21
-44.0175
  0
LINE
  8
0
 10
81.2571
 20
-44.0175
 11
81.4348
 21
-43.7097
  0
LINE
  8
0
 10
81.4348
 20
-43.7097
 11
81.6726
 21
-43.4456
  0
LINE
  8
0
 10
81.6726
 20
-43.4456
 11
81.9601
 21
-43.2367
  0
LINE
  8
0
 10
81.9601
 20
-43.2367
 11
82.2848
 21
-43.0921
  0
LINE
  8
0
 10
82.2848
 20
-43.0921
 11
82.6324
 21
-43.0182
  0
LINE
  8
0
 10
82.6324
 20
-43.0182
 11
82.9878
 21
-43.0182
  0
LINE
  8
0
 10
82.9878
 20
-43.0182
 11
83.3355
 21
-43.0921
  0
LINE
  8
0
 10
83.3355
 20
-43.0921
 11
83.6601
 21
-43.2367
  0
LINE
  8
0
 10
83.6601
 20
-43.2367
 11
83.9476
 21
-43.4456
  0
LINE
  8
0
 10
83.9476
 20
-43.4456
 11
84.1855
 21
-43.7097
  0
LINE
  8
0
 10
84.1855
 20
-43.7097
 11
84.3632
 21
-44.0175
  0
LINE
  8
0
 10
84.3632
 20
-44.0175
 11
84.473
 21
-44.3555
  0
LINE
  8
0
 10
84.473
 20
-44.3555
 11
84.5101
 21
-44.7089
  0
LINE
  8
0
 10
84.5101
 20
-44.7089
 11
84.473
 21
-45.0624
  0
LINE
  8
0
 10
84.473
 20
-45.0624
 11
84.3632
 21
-45.4004
  0
LINE
  8
0
 10
84.3632
 20
-45.4004
 11
84.1855
 21
-45.7081
  0
LINE
  8
0
 10
84.1855
 20
-45.7081
 11
83.9476
 21
-45.9722
  0
LINE
  8
0
 10
83.9476
 20
-45.9722
 11
83.6601
 21
-46.1811
  0
LINE
  8
0
 10
83.6601
 20
-46.1811
 11
83.3355
 21
-46.3257
  0
LINE
  8
0
 10
83.3355
 20
-46.3257
 11
82.9878
 21
-46.3996
  0
LINE
  8
0
 10
82.9878
 20
-46.3996
 11
82.6324
 21
-46.3996
  0
LINE
  8
0
 10
82.6324
 20
-46.3996
 11
82.2848
 21
-46.3257
  0
LINE
  8
0
 10
82.2848
 20
-46.3257
 11
81.9601
 21
-46.1811
  0
LINE
  8
0
 10
81.9601
 20
-46.1811
 11
81.6726
 21
-45.9722
  0
LINE
  8
0
 10
81.6726
 20
-45.9722
 11
81.4348
 21
-45.7081
  0
LINE
  8
0
 10
81.4348
 20
-45.7081
 11
81.2571
 21
-45.4004
  0
LINE
  8
0
 10
81.2571
 20
-45.4004
 11
81.1473
 21
-45.0624
  0
LINE
  8
0
 10
81.1473
 20
-45.0624
 11
81.1101
 21
-44.7089
  0
LINE
  8
0
 10
81.1101
 20
39.7089
 11
81.1473
 21
40.0624
  0
LINE
  8
0
 10
81.1473
 20
40.0624
 11
81.2571
 21
40.4004
  0
LINE
  8
0
 10
81.2571
 20
40.4004
 11
81.4348
 21
40.7081
  0
LINE
  8
0
 10
81.4348
 20
40.7081
 11
81.6726
 21
40.9722
  0
LINE
  8
0
 10
81.6726
 20
40.9722
 11
81.9601
 21
41.1811
  0
LINE
  8
0
 10
81.9601
 20
41.1811
 11
82.2848
 21
41.3257
  0
LINE
  8
0
 10
82.2848
 20
41.3257
 11
82.6324
 21
41.3996
  0
LINE
  8
0
 10
82.6324
 20
41.3996
 11
82.9878
 21
41.3996
  0
LINE
  8
0
 10
82.9878
 20
41.3996
 11
83.3355
 21
41.3257
  0
LINE
  8
0
 10
83.3355
 20
41.3257
 11
83.6601
 21
41.1811
  0
LINE
  8
0
 10
83.6601
 20
41.1811
 11
83.9476
 21
40.9722
  0
LINE
  8
0
 10
83.9476
 20
40.9722
 11
84.1855
 21
40.7081
  0
LINE
  8
0
 10
84.1855
 20
40.7081
 11
84.3632
 21
40.4004
  0
LINE
  8
0
 10
84.3632
 20
40.4004
 11
84.473
 21
40.0624
  0
LINE
  8
0
 10
84.473
 20
40.0624
 11
84.5101
 21
39.7089
  0
LINE
  8
0
 10
84.5101
 20
39.7089
 11
84.473
 21
39.3555
  0
LINE
  8
0
 10
84.473
 20
39.3555
 11
84.3632
 21
39.0175
  0
LINE
  8
0
 10
84.3632
 20
39.0175
 11
84.1855
 21
38.7097
  0
LINE
  8
0
 10
84.1855
 20
38.7097
 11
83.9476
 21
38.4456
  0
LINE
  8
0
 10
83.9476
 20
38.4456
 11
83.6601
 21
38.2367
  0
LINE
  8
0
 10
83.6601
 20
38.2367
 11
83.3355
 21
38.0921
  0
LINE
  8
0
 10
83.3355
 20
38.0921
 11
82.9878
 21
38.0182
  0
LINE
  8
0
 10
82.9878
 20
38.0182
 11
82.6324
 21
38.0182
  0
LINE
  8
0
 10
82.6324
 20
38.0182
 11
82.2848
 21
38.0921
  0
LINE
  8
0
 10
82.2848
 20
38.0921
 11
81.9601
 21
38.2367
  0
LINE
  8
0
 10
81.9601
 20
38.2367
 11
81.6726
 21
38.4456
  0
LINE
  8
0
 10
81.6726
 20
38.4456
 11
81.4348
 21
38.7097
  0
LINE
  8
0
 10
81.4348
 20
38.7097
 11
81.2571
 21
39.0175
  0
LINE
  8
0
 10
81.2571
 20
39.0175
 11
81.1473
 21
39.3555
  0
LINE
  8
0
 10
81.1473
 20
39.3555
 11
81.1101
 21
39.7089
  0
ENDSEC
  0
SECTION
  2
OBJECTS
  0
DICTIONARY
  0
ENDSEC
  0
EOF
