  0
SECTION
  2
BLOCKS
  0
ENDSEC
  0
SECTION
  2
ENTITIES
  0
LINE
  8
0
 10
-70.2025
 20
-57.8474
 11
-70.1726
 21
-57.8855
  0
LINE
  8
0
 10
-70.1726
 20
-57.8855
 11
-64.3033
 21
-65.3474
  0
LINE
  8
0
 10
-64.3033
 20
-65.3474
 11
-64.266
 21
-65.3947
  0
LINE
  8
0
 10
-64.266
 20
-65.3947
 11
-59.6722
 21
-71.2349
  0
LINE
  8
0
 10
-59.6722
 20
-71.2349
 11
-58.8925
 21
-73.1846
  0
LINE
  8
0
 10
-58.8925
 20
-73.1846
 11
-57.9096
 21
-75.6423
  0
LINE
  8
0
 10
-57.9096
 20
-75.6423
 11
-49.8374
 21
-85.8402
  0
LINE
  8
0
 10
-49.8374
 20
-85.8402
 11
-47.3364
 21
-88.9998
  0
LINE
  8
0
 10
-47.3364
 20
-88.9998
 11
-47.2892
 21
-89.0595
  0
LINE
  8
0
 10
-47.2892
 20
-89.0595
 11
-47.2746
 21
-89.0779
  0
LINE
  8
0
 10
-47.2746
 20
-89.0779
 11
-45.1309
 21
-89.5829
  0
LINE
  8
0
 10
-45.1309
 20
-89.5829
 11
-38.1926
 21
-91.2173
  0
LINE
  8
0
 10
-38.1926
 20
-91.2173
 11
-33.6761
 21
-88.0548
  0
LINE
  8
0
 10
-33.6761
 20
-88.0548
 11
-26.5799
 21
-83.0859
  0
LINE
  8
0
 10
-26.5799
 20
-83.0859
 11
-26.5799
 21
-83.0859
  0
LINE
  8
0
 10
-26.5799
 20
-83.0859
 11
-26.3906
 21
-83.06
  0
LINE
  8
0
 10
-26.3906
 20
-83.06
 11
-26.0814
 21
-83.0178
  0
LINE
  8
0
 10
-26.0814
 20
-83.0178
 11
-26.0297
 21
-82.9936
  0
LINE
  8
0
 10
-26.0297
 20
-82.9936
 11
-25.998
 21
-82.9789
  0
LINE
  8
0
 10
-25.998
 20
-82.9789
 11
-17.1949
 21
-78.8739
  0
LINE
  8
0
 10
-17.1949
 20
-78.8739
 11
-17.1946
 21
-78.8738
  0
LINE
  8
0
 10
-17.1946
 20
-78.8738
 11
-11.7903
 21
-76.3537
  0
LINE
  8
0
 10
-11.7903
 20
-76.3537
 11
-11.7903
 21
-76.3537
  0
LINE
  8
0
 10
-11.7903
 20
-76.3537
 11
-11.7321
 21
-76.3266
  0
LINE
  8
0
 10
-11.7321
 20
-76.3266
 11
-11.3484
 21
-75.8806
  0
LINE
  8
0
 10
-11.3484
 20
-75.8806
 11
-11.3484
 21
-75.8806
  0
LINE
  8
0
 10
-11.3484
 20
-75.8806
 11
-11.1814
 21
-75.6866
  0
LINE
  8
0
 10
-11.1814
 20
-75.6866
 11
-9.97269
 21
-70.4814
  0
LINE
  8
0
 10
-9.97269
 20
-70.4814
 11
-6.53208
 21
-55.6653
  0
LINE
  8
0
 10
-6.53208
 20
-55.6653
 11
9.40629
 21
-57.5929
  0
LINE
  8
0
 10
9.40629
 20
-57.5929
 11
14.5822
 21
-58.2189
  0
LINE
  8
0
 10
14.5822
 20
-58.2189
 11
20.6535
 21
-58.2189
  0
LINE
  8
0
 10
20.6535
 20
-58.2189
 11
34.9677
 21
-58.2189
  0
LINE
  8
0
 10
34.9677
 20
-58.2189
 11
37.0607
 21
-52.5963
  0
LINE
  8
0
 10
37.0607
 20
-52.5963
 11
37.9484
 21
-50.2115
  0
LINE
  8
0
 10
37.9484
 20
-50.2115
 11
41.1501
 21
-50.2115
  0
LINE
  8
0
 10
41.1501
 20
-50.2115
 11
51.4365
 21
-50.2115
  0
LINE
  8
0
 10
51.4365
 20
-50.2115
 11
55.0696
 21
-50.2115
  0
LINE
  8
0
 10
55.0696
 20
-50.2115
 11
83.5435
 21
-50.2115
  0
LINE
  8
0
 10
83.5435
 20
-50.2115
 11
86.5488
 21
-47.3086
  0
LINE
  8
0
 10
86.5488
 20
-47.3086
 11
90.5435
 21
-43.45
  0
LINE
  8
0
 10
90.5435
 20
-43.45
 11
90.5435
 21
40.1567
  0
LINE
  8
0
 10
90.5435
 20
40.1567
 11
85.5908
 21
44.4458
  0
LINE
  8
0
 10
85.5908
 20
44.4458
 11
83.5435
 21
46.2189
  0
LINE
  8
0
 10
83.5435
 20
46.2189
 11
54.6563
 21
46.2189
  0
LINE
  8
0
 10
54.6563
 20
46.2189
 11
52.5298
 21
46.2189
  0
LINE
  8
0
 10
52.5298
 20
46.2189
 11
40.0058
 21
46.2189
  0
LINE
  8
0
 10
40.0058
 20
46.2189
 11
35.5682
 21
46.2189
  0
LINE
  8
0
 10
35.5682
 20
46.2189
 11
32.5523
 21
55.1608
  0
LINE
  8
0
 10
32.5523
 20
55.1608
 11
31.5209
 21
58.2189
  0
LINE
  8
0
 10
31.5209
 20
58.2189
 11
19.5381
 21
58.2189
  0
LINE
  8
0
 10
19.5381
 20
58.2189
 11
19.5068
 21
58.2189
  0
LINE
  8
0
 10
19.5068
 20
58.2189
 11
14.6806
 21
58.2189
  0
LINE
  8
0
 10
14.6806
 20
58.2189
 11
11.9679
 21
60.2792
  0
LINE
  8
0
 10
11.9679
 20
60.2792
 11
10.9675
 21
61.0389
  0
LINE
  8
0
 10
10.9675
 20
61.0389
 11
-0.667651
 21
61.0389
  0
LINE
  8
0
 10
-0.667651
 20
61.0389
 11
-5.64637
 21
61.0389
  0
LINE
  8
0
 10
-5.64637
 20
61.0389
 11
-5.95493
 21
60.381
  0
LINE
  8
0
 10
-5.95493
 20
60.381
 11
-6.96892
 21
58.2189
  0
LINE
  8
0
 10
-6.96892
 20
58.2189
 11
-19.2638
 21
58.2189
  0
LINE
  8
0
 10
-19.2638
 20
58.2189
 11
-19.2887
 21
58.2189
  0
LINE
  8
0
 10
-19.2887
 20
58.2189
 11
-23.0183
 21
58.2189
  0
LINE
  8
0
 10
-23.0183
 20
58.2189
 11
-24.9319
 21
58.2189
  0
LINE
  8
0
 10
-24.9319
 20
58.2189
 11
-24.9516
 21
58.2189
  0
LINE
  8
0
 10
-24.9516
 20
58.2189
 11
-25.4284
 21
58.2189
  0
LINE
  8
0
 10
-25.4284
 20
58.2189
 11
-37.802
 21
58.2189
  0
LINE
  8
0
 10
-37.802
 20
58.2189
 11
-37.8229
 21
58.2189
  0
LINE
  8
0
 10
-37.8229
 20
58.2189
 11
-40.9446
 21
58.2189
  0
LINE
  8
0
 10
-40.9446
 20
58.2189
 11
-41.8915
 21
57.9142
  0
LINE
  8
0
 10
-41.8915
 20
57.9142
 11
-45.6437
 21
56.7067
  0
LINE
  8
0
 10
-45.6437
 20
56.7067
 11
-52.6437
 21
49.7067
  0
LINE
  8
0
 10
-52.6437
 20
49.7067
 11
-53.511
 21
46.1523
  0
LINE
  8
0
 10
-53.511
 20
46.1523
 11
-56.2782
 21
34.8111
  0
LINE
  8
0
 10
-56.2782
 20
34.8111
 11
-56.892
 21
31.3048
  0
LINE
  8
0
 10
-56.892
 20
31.3048
 11
-57.0844
 21
30.2059
  0
LINE
  8
0
 10
-57.0844
 20
30.2059
 11
-57.6041
 21
25.6166
  0
LINE
  8
0
 10
-57.6041
 20
25.6166
 11
-58.9658
 21
13.592
  0
LINE
  8
0
 10
-58.9658
 20
13.592
 11
-59.043
 21
12.2045
  0
LINE
  8
0
 10
-59.043
 20
12.2045
 11
-59.2407
 21
8.65
  0
LINE
  8
0
 10
-59.2407
 20
8.65
 11
-59.2407
 21
-8.65
  0
LINE
  8
0
 10
-59.2407
 20
-8.65
 11
-59.043
 21
-12.2045
  0
LINE
  8
0
 10
-59.043
 20
-12.2045
 11
-58.9658
 21
-13.592
  0
LINE
  8
0
 10
-58.9658
 20
-13.592
 11
-57.6041
 21
-25.6166
  0
LINE
  8
0
 10
-57.6041
 20
-25.6166
 11
-57.0914
 21
-30.1438
  0
LINE
  8
0
 10
-57.0914
 20
-30.1438
 11
-57.7637
 21
-33.7652
  0
LINE
  8
0
 10
-57.7637
 20
-33.7652
 11
-59.1758
 21
-41.3726
  0
LINE
  8
0
 10
-59.1758
 20
-41.3726
 11
-62.3768
 21
-43.614
  0
LINE
  8
0
 10
-62.3768
 20
-43.614
 11
-68.9069
 21
-48.1864
  0
LINE
  8
0
 10
-68.9069
 20
-48.1864
 11
-69.2204
 21
-48.5135
  0
LINE
  8
0
 10
-69.2204
 20
-48.5135
 11
-69.2204
 21
-48.5135
  0
LINE
  8
0
 10
-69.2204
 20
-48.5135
 11
-69.6504
 21
-48.9623
  0
LINE
  8
0
 10
-69.6504
 20
-48.9623
 11
-69.9345
 21
-53.5343
  0
LINE
  8
0
 10
-69.9345
 20
-53.5343
 11
-70.2025
 21
-57.8474
  0
LINE
  8
0
 10
-67.9386
 20
-56.1284
 11
-67.7534
 21
-53.1475
  0
LINE
  8
0
 10
-67.7534
 20
-53.1475
 11
-67.7534
 21
-53.1474
  0
LINE
  8
0
 10
-67.7534
 20
-53.1474
 11
-67.5608
 21
-50.0487
  0
LINE
  8
0
 10
-67.5608
 20
-50.0487
 11
-61.4846
 21
-45.794
  0
LINE
  8
0
 10
-61.4846
 20
-45.794
 11
-58.0528
 21
-43.3911
  0
LINE
  8
0
 10
-58.0528
 20
-43.3911
 11
-57.9282
 21
-43.7748
  0
LINE
  8
0
 10
-57.9282
 20
-43.7748
 11
-57.5257
 21
-44.4719
  0
LINE
  8
0
 10
-57.5257
 20
-44.4719
 11
-56.9872
 21
-45.07
  0
LINE
  8
0
 10
-56.9872
 20
-45.07
 11
-56.336
 21
-45.5431
  0
LINE
  8
0
 10
-56.336
 20
-45.5431
 11
-55.6007
 21
-45.8705
  0
LINE
  8
0
 10
-55.6007
 20
-45.8705
 11
-54.8134
 21
-46.0378
  0
LINE
  8
0
 10
-54.8134
 20
-46.0378
 11
-54.0086
 21
-46.0378
  0
LINE
  8
0
 10
-54.0086
 20
-46.0378
 11
-53.2213
 21
-45.8705
  0
LINE
  8
0
 10
-53.2213
 20
-45.8705
 11
-52.486
 21
-45.5431
  0
LINE
  8
0
 10
-52.486
 20
-45.5431
 11
-51.8348
 21
-45.07
  0
LINE
  8
0
 10
-51.8348
 20
-45.07
 11
-51.2963
 21
-44.4719
  0
LINE
  8
0
 10
-51.2963
 20
-44.4719
 11
-50.8939
 21
-43.7748
  0
LINE
  8
0
 10
-50.8939
 20
-43.7748
 11
-50.6451
 21
-43.0094
  0
LINE
  8
0
 10
-50.6451
 20
-43.0094
 11
-50.561
 21
-42.2089
  0
LINE
  8
0
 10
-50.561
 20
-42.2089
 11
-50.6451
 21
-41.4084
  0
LINE
  8
0
 10
-50.6451
 20
-41.4084
 11
-50.8939
 21
-40.643
  0
LINE
  8
0
 10
-50.8939
 20
-40.643
 11
-51.2963
 21
-39.9459
  0
LINE
  8
0
 10
-51.2963
 20
-39.9459
 11
-51.8348
 21
-39.3478
  0
LINE
  8
0
 10
-51.8348
 20
-39.3478
 11
-52.486
 21
-38.8747
  0
LINE
  8
0
 10
-52.486
 20
-38.8747
 11
-53.2213
 21
-38.5473
  0
LINE
  8
0
 10
-53.2213
 20
-38.5473
 11
-54.0086
 21
-38.38
  0
LINE
  8
0
 10
-54.0086
 20
-38.38
 11
-54.8134
 21
-38.38
  0
LINE
  8
0
 10
-54.8134
 20
-38.38
 11
-55.6007
 21
-38.5473
  0
LINE
  8
0
 10
-55.6007
 20
-38.5473
 11
-56.223
 21
-38.8244
  0
LINE
  8
0
 10
-56.223
 20
-38.8244
 11
-54.9844
 21
-30.2059
  0
LINE
  8
0
 10
-54.9844
 20
-30.2059
 11
-54.9844
 21
-30.1059
  0
LINE
  8
0
 10
-54.9844
 20
-30.1059
 11
-56.4197
 21
-17.4308
  0
LINE
  8
0
 10
-56.4197
 20
-17.4308
 11
-56.8658
 21
-13.492
  0
LINE
  8
0
 10
-56.8658
 20
-13.492
 11
-57.0687
 21
-9.84423
  0
LINE
  8
0
 10
-57.0687
 20
-9.84423
 11
-57.1407
 21
-8.54999
  0
LINE
  8
0
 10
-57.1407
 20
-8.54999
 11
-57.1407
 21
8.54999
  0
LINE
  8
0
 10
-57.1407
 20
8.54999
 11
-57.0687
 21
9.84423
  0
LINE
  8
0
 10
-57.0687
 20
9.84423
 11
-56.8658
 21
13.492
  0
LINE
  8
0
 10
-56.8658
 20
13.492
 11
-56.4197
 21
17.4308
  0
LINE
  8
0
 10
-56.4197
 20
17.4308
 11
-54.9844
 21
30.1059
  0
LINE
  8
0
 10
-54.9844
 20
30.1059
 11
-54.8007
 21
31.1551
  0
LINE
  8
0
 10
-54.8007
 20
31.1551
 11
-54.1783
 21
34.7111
  0
LINE
  8
0
 10
-54.1783
 20
34.7111
 11
-51.3718
 21
46.213
  0
LINE
  8
0
 10
-51.3718
 20
46.213
 11
-50.5437
 21
49.6067
  0
LINE
  8
0
 10
-50.5437
 20
49.6067
 11
-47.1811
 21
52.9694
  0
LINE
  8
0
 10
-47.1811
 20
52.9694
 11
-47.261
 21
52.2089
  0
LINE
  8
0
 10
-47.261
 20
52.2089
 11
-47.1769
 21
51.4084
  0
LINE
  8
0
 10
-47.1769
 20
51.4084
 11
-46.9282
 21
50.643
  0
LINE
  8
0
 10
-46.9282
 20
50.643
 11
-46.5257
 21
49.9459
  0
LINE
  8
0
 10
-46.5257
 20
49.9459
 11
-45.9872
 21
49.3478
  0
LINE
  8
0
 10
-45.9872
 20
49.3478
 11
-45.336
 21
48.8747
  0
LINE
  8
0
 10
-45.336
 20
48.8747
 11
-44.6007
 21
48.5473
  0
LINE
  8
0
 10
-44.6007
 20
48.5473
 11
-43.8134
 21
48.38
  0
LINE
  8
0
 10
-43.8134
 20
48.38
 11
-43.0086
 21
48.38
  0
LINE
  8
0
 10
-43.0086
 20
48.38
 11
-42.2213
 21
48.5473
  0
LINE
  8
0
 10
-42.2213
 20
48.5473
 11
-41.486
 21
48.8747
  0
LINE
  8
0
 10
-41.486
 20
48.8747
 11
-40.8348
 21
49.3478
  0
LINE
  8
0
 10
-40.8348
 20
49.3478
 11
-40.2963
 21
49.9459
  0
LINE
  8
0
 10
-40.2963
 20
49.9459
 11
-39.8939
 21
50.643
  0
LINE
  8
0
 10
-39.8939
 20
50.643
 11
-39.6451
 21
51.4084
  0
LINE
  8
0
 10
-39.6451
 20
51.4084
 11
-39.561
 21
52.2089
  0
LINE
  8
0
 10
-39.561
 20
52.2089
 11
-39.6451
 21
53.0094
  0
LINE
  8
0
 10
-39.6451
 20
53.0094
 11
-39.8939
 21
53.7748
  0
LINE
  8
0
 10
-39.8939
 20
53.7748
 11
-40.2963
 21
54.4719
  0
LINE
  8
0
 10
-40.2963
 20
54.4719
 11
-40.8348
 21
55.07
  0
LINE
  8
0
 10
-40.8348
 20
55.07
 11
-41.1592
 21
55.3056
  0
LINE
  8
0
 10
-41.1592
 20
55.3056
 11
-40.5657
 21
55.4002
  0
LINE
  8
0
 10
-40.5657
 20
55.4002
 11
-27.7828
 21
55.4002
  0
LINE
  8
0
 10
-27.7828
 20
55.4002
 11
-25.0859
 21
55.4002
  0
LINE
  8
0
 10
-25.0859
 20
55.4002
 11
-23.1975
 21
55.4002
  0
LINE
  8
0
 10
-23.1975
 20
55.4002
 11
-22.7272
 21
55.4002
  0
LINE
  8
0
 10
-22.7272
 20
55.4002
 11
-9.9207
 21
55.4002
  0
LINE
  8
0
 10
-9.9207
 20
55.4002
 11
-6.64168
 21
55.4002
  0
LINE
  8
0
 10
-6.64168
 20
55.4002
 11
-6.31142
 21
56.1345
  0
LINE
  8
0
 10
-6.31142
 20
56.1345
 11
-5.37325
 21
58.2202
  0
LINE
  8
0
 10
-5.37325
 20
58.2202
 11
6.8212
 21
58.2202
  0
LINE
  8
0
 10
6.8212
 20
58.2202
 11
11.0475
 21
58.2202
  0
LINE
  8
0
 10
11.0475
 20
58.2202
 11
13.6277
 21
56.2284
  0
LINE
  8
0
 10
13.6277
 20
56.2284
 11
14.7006
 21
55.4002
  0
LINE
  8
0
 10
14.7006
 20
55.4002
 11
27.1586
 21
55.4002
  0
LINE
  8
0
 10
27.1586
 20
55.4002
 11
31.5408
 21
55.4002
  0
LINE
  8
0
 10
31.5408
 20
55.4002
 11
32.5395
 21
52.3945
  0
LINE
  8
0
 10
32.5395
 20
52.3945
 11
35.528
 21
43.4002
  0
LINE
  8
0
 10
35.528
 20
43.4002
 11
48.3707
 21
43.4002
  0
LINE
  8
0
 10
48.3707
 20
43.4002
 11
52.6366
 21
43.4002
  0
LINE
  8
0
 10
52.6366
 20
43.4002
 11
58.5911
 21
43.4002
  0
LINE
  8
0
 10
58.5911
 20
43.4002
 11
60.7101
 21
43.4002
  0
LINE
  8
0
 10
60.7101
 20
43.4002
 11
81.7605
 21
43.4002
  0
LINE
  8
0
 10
81.7605
 20
43.4002
 11
81.6204
 21
43.3705
  0
LINE
  8
0
 10
81.6204
 20
43.3705
 11
80.8851
 21
43.0431
  0
LINE
  8
0
 10
80.8851
 20
43.0431
 11
80.234
 21
42.57
  0
LINE
  8
0
 10
80.234
 20
42.57
 11
79.6954
 21
41.9719
  0
LINE
  8
0
 10
79.6954
 20
41.9719
 11
79.293
 21
41.2748
  0
LINE
  8
0
 10
79.293
 20
41.2748
 11
79.0443
 21
40.5094
  0
LINE
  8
0
 10
79.0443
 20
40.5094
 11
78.9601
 21
39.7089
  0
LINE
  8
0
 10
78.9601
 20
39.7089
 11
79.0443
 21
38.9084
  0
LINE
  8
0
 10
79.0443
 20
38.9084
 11
79.293
 21
38.143
  0
LINE
  8
0
 10
79.293
 20
38.143
 11
79.6954
 21
37.4459
  0
LINE
  8
0
 10
79.6954
 20
37.4459
 11
80.234
 21
36.8478
  0
LINE
  8
0
 10
80.234
 20
36.8478
 11
80.8851
 21
36.3747
  0
LINE
  8
0
 10
80.8851
 20
36.3747
 11
81.6204
 21
36.0473
  0
LINE
  8
0
 10
81.6204
 20
36.0473
 11
82.4077
 21
35.88
  0
LINE
  8
0
 10
82.4077
 20
35.88
 11
83.2126
 21
35.88
  0
LINE
  8
0
 10
83.2126
 20
35.88
 11
83.9998
 21
36.0473
  0
LINE
  8
0
 10
83.9998
 20
36.0473
 11
84.7351
 21
36.3747
  0
LINE
  8
0
 10
84.7351
 20
36.3747
 11
85.3863
 21
36.8478
  0
LINE
  8
0
 10
85.3863
 20
36.8478
 11
85.9248
 21
37.4459
  0
LINE
  8
0
 10
85.9248
 20
37.4459
 11
86.3273
 21
38.143
  0
LINE
  8
0
 10
86.3273
 20
38.143
 11
86.576
 21
38.9084
  0
LINE
  8
0
 10
86.576
 20
38.9084
 11
86.6601
 21
39.7089
  0
LINE
  8
0
 10
86.6601
 20
39.7089
 11
86.576
 21
40.5094
  0
LINE
  8
0
 10
86.576
 20
40.5094
 11
86.4955
 21
40.7571
  0
LINE
  8
0
 10
86.4955
 20
40.7571
 11
88.4435
 21
39.0701
  0
LINE
  8
0
 10
88.4435
 20
39.0701
 11
88.4435
 21
28.4094
  0
LINE
  8
0
 10
88.4435
 20
28.4094
 11
88.4435
 21
24.2926
  0
LINE
  8
0
 10
88.4435
 20
24.2926
 11
88.4435
 21
20.8444
  0
LINE
  8
0
 10
88.4435
 20
20.8444
 11
88.4435
 21
18.8605
  0
LINE
  8
0
 10
88.4435
 20
18.8605
 11
88.4435
 21
8.90958
  0
LINE
  8
0
 10
88.4435
 20
8.90958
 11
88.4435
 21
2.36481
  0
LINE
  8
0
 10
88.4435
 20
2.36481
 11
88.4435
 21
-0.659512
  0
LINE
  8
0
 10
88.4435
 20
-0.659512
 11
88.4435
 21
-3.5
  0
LINE
  8
0
 10
88.4435
 20
-3.5
 11
88.4435
 21
-20.5
  0
LINE
  8
0
 10
88.4435
 20
-20.5
 11
88.4435
 21
-23.3405
  0
LINE
  8
0
 10
88.4435
 20
-23.3405
 11
88.4435
 21
-26.3648
  0
LINE
  8
0
 10
88.4435
 20
-26.3648
 11
88.4435
 21
-32.9096
  0
LINE
  8
0
 10
88.4435
 20
-32.9096
 11
88.4435
 21
-42.8358
  0
LINE
  8
0
 10
88.4435
 20
-42.8358
 11
86.6458
 21
-44.5722
  0
LINE
  8
0
 10
86.6458
 20
-44.5722
 11
86.576
 21
-43.9084
  0
LINE
  8
0
 10
86.576
 20
-43.9084
 11
86.3273
 21
-43.143
  0
LINE
  8
0
 10
86.3273
 20
-43.143
 11
85.9248
 21
-42.4459
  0
LINE
  8
0
 10
85.9248
 20
-42.4459
 11
85.3863
 21
-41.8478
  0
LINE
  8
0
 10
85.3863
 20
-41.8478
 11
84.7351
 21
-41.3747
  0
LINE
  8
0
 10
84.7351
 20
-41.3747
 11
83.9998
 21
-41.0473
  0
LINE
  8
0
 10
83.9998
 20
-41.0473
 11
83.2126
 21
-40.88
  0
LINE
  8
0
 10
83.2126
 20
-40.88
 11
82.4077
 21
-40.88
  0
LINE
  8
0
 10
82.4077
 20
-40.88
 11
81.6204
 21
-41.0473
  0
LINE
  8
0
 10
81.6204
 20
-41.0473
 11
80.8851
 21
-41.3747
  0
LINE
  8
0
 10
80.8851
 20
-41.3747
 11
80.234
 21
-41.8478
  0
LINE
  8
0
 10
80.234
 20
-41.8478
 11
79.6954
 21
-42.4459
  0
LINE
  8
0
 10
79.6954
 20
-42.4459
 11
79.293
 21
-43.143
  0
LINE
  8
0
 10
79.293
 20
-43.143
 11
79.0443
 21
-43.9084
  0
LINE
  8
0
 10
79.0443
 20
-43.9084
 11
78.9601
 21
-44.7089
  0
LINE
  8
0
 10
78.9601
 20
-44.7089
 11
79.0443
 21
-45.5094
  0
LINE
  8
0
 10
79.0443
 20
-45.5094
 11
79.293
 21
-46.2748
  0
LINE
  8
0
 10
79.293
 20
-46.2748
 11
79.6954
 21
-46.9719
  0
LINE
  8
0
 10
79.6954
 20
-46.9719
 11
80.234
 21
-47.57
  0
LINE
  8
0
 10
80.234
 20
-47.57
 11
80.3653
 21
-47.6654
  0
LINE
  8
0
 10
80.3653
 20
-47.6654
 11
60.7101
 21
-47.6654
  0
LINE
  8
0
 10
60.7101
 20
-47.6654
 11
57.2573
 21
-47.6654
  0
LINE
  8
0
 10
57.2573
 20
-47.6654
 11
51.5802
 21
-47.6654
  0
LINE
  8
0
 10
51.5802
 20
-47.6654
 11
45.5194
 21
-47.6654
  0
LINE
  8
0
 10
45.5194
 20
-47.6654
 11
34.4831
 21
-47.6654
  0
LINE
  8
0
 10
34.4831
 20
-47.6654
 11
34.3746
 21
-47.9988
  0
LINE
  8
0
 10
34.3746
 20
-47.9988
 11
34.3147
 21
-48.183
  0
LINE
  8
0
 10
34.3147
 20
-48.183
 11
34.3324
 21
-48.9419
  0
LINE
  8
0
 10
34.3324
 20
-48.9419
 11
34.3607
 21
-50.151
  0
LINE
  8
0
 10
34.3607
 20
-50.151
 11
34.3621
 21
-50.2115
  0
LINE
  8
0
 10
34.3621
 20
-50.2115
 11
34.3621
 21
-50.2115
  0
LINE
  8
0
 10
34.3621
 20
-50.2115
 11
34.3994
 21
-50.2115
  0
LINE
  8
0
 10
34.3994
 20
-50.2115
 11
35.9957
 21
-50.2115
  0
LINE
  8
0
 10
35.9957
 20
-50.2115
 11
35.0683
 21
-52.6261
  0
LINE
  8
0
 10
35.0683
 20
-52.6261
 11
34.0028
 21
-55.4002
  0
LINE
  8
0
 10
34.0028
 20
-55.4002
 11
28.9693
 21
-55.4002
  0
LINE
  8
0
 10
28.9693
 20
-55.4002
 11
14.7991
 21
-55.4002
  0
LINE
  8
0
 10
14.7991
 20
-55.4002
 11
-1.13571
 21
-53.6774
  0
LINE
  8
0
 10
-1.13571
 20
-53.6774
 11
-6.87047
 21
-53.0573
  0
LINE
  8
0
 10
-6.87047
 20
-53.0573
 11
-6.89418
 21
-53.0615
  0
LINE
  8
0
 10
-6.89418
 20
-53.0615
 11
-6.96559
 21
-53.0741
  0
LINE
  8
0
 10
-6.96559
 20
-53.0741
 11
-6.96559
 21
-53.0741
  0
LINE
  8
0
 10
-6.96559
 20
-53.0741
 11
-7.27386
 21
-53.4973
  0
LINE
  8
0
 10
-7.27386
 20
-53.4973
 11
-7.37621
 21
-53.6378
  0
LINE
  8
0
 10
-7.37621
 20
-53.6378
 11
-9.01188
 21
-59.9231
  0
LINE
  8
0
 10
-9.01188
 20
-59.9231
 11
-11.8451
 21
-70.8102
  0
LINE
  8
0
 10
-11.8451
 20
-70.8102
 11
-12.1836
 21
-70.2239
  0
LINE
  8
0
 10
-12.1836
 20
-70.2239
 11
-12.7222
 21
-69.6257
  0
LINE
  8
0
 10
-12.7222
 20
-69.6257
 11
-13.3733
 21
-69.1527
  0
LINE
  8
0
 10
-13.3733
 20
-69.1527
 11
-14.1086
 21
-68.8253
  0
LINE
  8
0
 10
-14.1086
 20
-68.8253
 11
-14.8959
 21
-68.6579
  0
LINE
  8
0
 10
-14.8959
 20
-68.6579
 11
-15.7008
 21
-68.6579
  0
LINE
  8
0
 10
-15.7008
 20
-68.6579
 11
-16.4881
 21
-68.8253
  0
LINE
  8
0
 10
-16.4881
 20
-68.8253
 11
-17.2233
 21
-69.1527
  0
LINE
  8
0
 10
-17.2233
 20
-69.1527
 11
-17.8745
 21
-69.6257
  0
LINE
  8
0
 10
-17.8745
 20
-69.6257
 11
-18.4131
 21
-70.2239
  0
LINE
  8
0
 10
-18.4131
 20
-70.2239
 11
-18.8155
 21
-70.9209
  0
LINE
  8
0
 10
-18.8155
 20
-70.9209
 11
-19.0642
 21
-71.6864
  0
LINE
  8
0
 10
-19.0642
 20
-71.6864
 11
-19.1483
 21
-72.4868
  0
LINE
  8
0
 10
-19.1483
 20
-72.4868
 11
-19.0642
 21
-73.2873
  0
LINE
  8
0
 10
-19.0642
 20
-73.2873
 11
-18.8155
 21
-74.0528
  0
LINE
  8
0
 10
-18.8155
 20
-74.0528
 11
-18.4131
 21
-74.7498
  0
LINE
  8
0
 10
-18.4131
 20
-74.7498
 11
-17.8745
 21
-75.348
  0
LINE
  8
0
 10
-17.8745
 20
-75.348
 11
-17.2233
 21
-75.821
  0
LINE
  8
0
 10
-17.2233
 20
-75.821
 11
-16.7834
 21
-76.0169
  0
LINE
  8
0
 10
-16.7834
 20
-76.0169
 11
-21.9814
 21
-78.4408
  0
LINE
  8
0
 10
-21.9814
 20
-78.4408
 11
-26.4504
 21
-80.5248
  0
LINE
  8
0
 10
-26.4504
 20
-80.5248
 11
-26.7908
 21
-80.5631
  0
LINE
  8
0
 10
-26.7908
 20
-80.5631
 11
-27.0192
 21
-80.5888
  0
LINE
  8
0
 10
-27.0192
 20
-80.5888
 11
-27.0594
 21
-80.6169
  0
LINE
  8
0
 10
-27.0594
 20
-80.6169
 11
-27.0872
 21
-80.6363
  0
LINE
  8
0
 10
-27.0872
 20
-80.6363
 11
-33.9369
 21
-85.4326
  0
LINE
  8
0
 10
-33.9369
 20
-85.4326
 11
-38.632
 21
-88.7201
  0
LINE
  8
0
 10
-38.632
 20
-88.7201
 11
-40.7851
 21
-88.2129
  0
LINE
  8
0
 10
-40.7851
 20
-88.2129
 11
-45.1191
 21
-87.192
  0
LINE
  8
0
 10
-45.1191
 20
-87.192
 11
-52.602
 21
-77.7386
  0
LINE
  8
0
 10
-52.602
 20
-77.7386
 11
-55.6305
 21
-73.9127
  0
LINE
  8
0
 10
-55.6305
 20
-73.9127
 11
-56.1463
 21
-72.637
  0
LINE
  8
0
 10
-56.1463
 20
-72.637
 11
-57.4083
 21
-69.5159
  0
LINE
  8
0
 10
-57.4083
 20
-69.5159
 11
-57.4438
 21
-69.4708
  0
LINE
  8
0
 10
-57.4438
 20
-69.4708
 11
-63.0225
 21
-62.3785
  0
LINE
  8
0
 10
-63.0225
 20
-62.3785
 11
-67.9386
 21
-56.1284
  0
LINE
  8
0
 10
-56.111
 20
-42.2089
 11
-56.0739
 21
-41.8555
  0
LINE
  8
0
 10
-56.0739
 20
-41.8555
 11
-55.964
 21
-41.5175
  0
LINE
  8
0
 10
-55.964
 20
-41.5175
 11
-55.7863
 21
-41.2097
  0
LINE
  8
0
 10
-55.7863
 20
-41.2097
 11
-55.5485
 21
-40.9456
  0
LINE
  8
0
 10
-55.5485
 20
-40.9456
 11
-55.261
 21
-40.7367
  0
LINE
  8
0
 10
-55.261
 20
-40.7367
 11
-54.9363
 21
-40.5921
  0
LINE
  8
0
 10
-54.9363
 20
-40.5921
 11
-54.5887
 21
-40.5182
  0
LINE
  8
0
 10
-54.5887
 20
-40.5182
 11
-54.2333
 21
-40.5182
  0
LINE
  8
0
 10
-54.2333
 20
-40.5182
 11
-53.8857
 21
-40.5921
  0
LINE
  8
0
 10
-53.8857
 20
-40.5921
 11
-53.561
 21
-40.7367
  0
LINE
  8
0
 10
-53.561
 20
-40.7367
 11
-53.2735
 21
-40.9456
  0
LINE
  8
0
 10
-53.2735
 20
-40.9456
 11
-53.0357
 21
-41.2097
  0
LINE
  8
0
 10
-53.0357
 20
-41.2097
 11
-52.858
 21
-41.5175
  0
LINE
  8
0
 10
-52.858
 20
-41.5175
 11
-52.7482
 21
-41.8555
  0
LINE
  8
0
 10
-52.7482
 20
-41.8555
 11
-52.711
 21
-42.2089
  0
LINE
  8
0
 10
-52.711
 20
-42.2089
 11
-52.7482
 21
-42.5624
  0
LINE
  8
0
 10
-52.7482
 20
-42.5624
 11
-52.858
 21
-42.9004
  0
LINE
  8
0
 10
-52.858
 20
-42.9004
 11
-53.0357
 21
-43.2081
  0
LINE
  8
0
 10
-53.0357
 20
-43.2081
 11
-53.2735
 21
-43.4722
  0
LINE
  8
0
 10
-53.2735
 20
-43.4722
 11
-53.561
 21
-43.6811
  0
LINE
  8
0
 10
-53.561
 20
-43.6811
 11
-53.8857
 21
-43.8257
  0
LINE
  8
0
 10
-53.8857
 20
-43.8257
 11
-54.2333
 21
-43.8996
  0
LINE
  8
0
 10
-54.2333
 20
-43.8996
 11
-54.5887
 21
-43.8996
  0
LINE
  8
0
 10
-54.5887
 20
-43.8996
 11
-54.9363
 21
-43.8257
  0
LINE
  8
0
 10
-54.9363
 20
-43.8257
 11
-55.261
 21
-43.6811
  0
LINE
  8
0
 10
-55.261
 20
-43.6811
 11
-55.5485
 21
-43.4722
  0
LINE
  8
0
 10
-55.5485
 20
-43.4722
 11
-55.7863
 21
-43.2081
  0
LINE
  8
0
 10
-55.7863
 20
-43.2081
 11
-55.964
 21
-42.9004
  0
LINE
  8
0
 10
-55.964
 20
-42.9004
 11
-56.0739
 21
-42.5624
  0
LINE
  8
0
 10
-56.0739
 20
-42.5624
 11
-56.111
 21
-42.2089
  0
LINE
  8
0
 10
-45.111
 20
52.2089
 11
-45.0739
 21
52.5624
  0
LINE
  8
0
 10
-45.0739
 20
52.5624
 11
-44.964
 21
52.9004
  0
LINE
  8
0
 10
-44.964
 20
52.9004
 11
-44.7863
 21
53.2081
  0
LINE
  8
0
 10
-44.7863
 20
53.2081
 11
-44.5485
 21
53.4722
  0
LINE
  8
0
 10
-44.5485
 20
53.4722
 11
-44.261
 21
53.6811
  0
LINE
  8
0
 10
-44.261
 20
53.6811
 11
-43.9363
 21
53.8257
  0
LINE
  8
0
 10
-43.9363
 20
53.8257
 11
-43.5887
 21
53.8996
  0
LINE
  8
0
 10
-43.5887
 20
53.8996
 11
-43.2333
 21
53.8996
  0
LINE
  8
0
 10
-43.2333
 20
53.8996
 11
-42.8857
 21
53.8257
  0
LINE
  8
0
 10
-42.8857
 20
53.8257
 11
-42.561
 21
53.6811
  0
LINE
  8
0
 10
-42.561
 20
53.6811
 11
-42.2735
 21
53.4722
  0
LINE
  8
0
 10
-42.2735
 20
53.4722
 11
-42.0357
 21
53.2081
  0
LINE
  8
0
 10
-42.0357
 20
53.2081
 11
-41.858
 21
52.9004
  0
LINE
  8
0
 10
-41.858
 20
52.9004
 11
-41.7482
 21
52.5624
  0
LINE
  8
0
 10
-41.7482
 20
52.5624
 11
-41.711
 21
52.2089
  0
LINE
  8
0
 10
-41.711
 20
52.2089
 11
-41.7482
 21
51.8555
  0
LINE
  8
0
 10
-41.7482
 20
51.8555
 11
-41.858
 21
51.5175
  0
LINE
  8
0
 10
-41.858
 20
51.5175
 11
-42.0357
 21
51.2097
  0
LINE
  8
0
 10
-42.0357
 20
51.2097
 11
-42.2735
 21
50.9456
  0
LINE
  8
0
 10
-42.2735
 20
50.9456
 11
-42.561
 21
50.7367
  0
LINE
  8
0
 10
-42.561
 20
50.7367
 11
-42.8857
 21
50.5921
  0
LINE
  8
0
 10
-42.8857
 20
50.5921
 11
-43.2333
 21
50.5182
  0
LINE
  8
0
 10
-43.2333
 20
50.5182
 11
-43.5887
 21
50.5182
  0
LINE
  8
0
 10
-43.5887
 20
50.5182
 11
-43.9363
 21
50.5921
  0
LINE
  8
0
 10
-43.9363
 20
50.5921
 11
-44.261
 21
50.7367
  0
LINE
  8
0
 10
-44.261
 20
50.7367
 11
-44.5485
 21
50.9456
  0
LINE
  8
0
 10
-44.5485
 20
50.9456
 11
-44.7863
 21
51.2097
  0
LINE
  8
0
 10
-44.7863
 20
51.2097
 11
-44.964
 21
51.5175
  0
LINE
  8
0
 10
-44.964
 20
51.5175
 11
-45.0739
 21
51.8555
  0
LINE
  8
0
 10
-45.0739
 20
51.8555
 11
-45.111
 21
52.2089
  0
LINE
  8
0
 10
-16.9983
 20
-72.4868
 11
-16.9612
 21
-72.1334
  0
LINE
  8
0
 10
-16.9612
 20
-72.1334
 11
-16.8514
 21
-71.7954
  0
LINE
  8
0
 10
-16.8514
 20
-71.7954
 11
-16.6737
 21
-71.4876
  0
LINE
  8
0
 10
-16.6737
 20
-71.4876
 11
-16.4359
 21
-71.2235
  0
LINE
  8
0
 10
-16.4359
 20
-71.2235
 11
-16.1483
 21
-71.0146
  0
LINE
  8
0
 10
-16.1483
 20
-71.0146
 11
-15.8237
 21
-70.8701
  0
LINE
  8
0
 10
-15.8237
 20
-70.8701
 11
-15.476
 21
-70.7962
  0
LINE
  8
0
 10
-15.476
 20
-70.7962
 11
-15.1206
 21
-70.7962
  0
LINE
  8
0
 10
-15.1206
 20
-70.7962
 11
-14.773
 21
-70.8701
  0
LINE
  8
0
 10
-14.773
 20
-70.8701
 11
-14.4483
 21
-71.0146
  0
LINE
  8
0
 10
-14.4483
 20
-71.0146
 11
-14.1608
 21
-71.2235
  0
LINE
  8
0
 10
-14.1608
 20
-71.2235
 11
-13.923
 21
-71.4876
  0
LINE
  8
0
 10
-13.923
 20
-71.4876
 11
-13.7453
 21
-71.7954
  0
LINE
  8
0
 10
-13.7453
 20
-71.7954
 11
-13.6355
 21
-72.1334
  0
LINE
  8
0
 10
-13.6355
 20
-72.1334
 11
-13.5983
 21
-72.4868
  0
LINE
  8
0
 10
-13.5983
 20
-72.4868
 11
-13.6355
 21
-72.8403
  0
LINE
  8
0
 10
-13.6355
 20
-72.8403
 11
-13.7453
 21
-73.1783
  0
LINE
  8
0
 10
-13.7453
 20
-73.1783
 11
-13.923
 21
-73.4861
  0
LINE
  8
0
 10
-13.923
 20
-73.4861
 11
-14.1608
 21
-73.7502
  0
LINE
  8
0
 10
-14.1608
 20
-73.7502
 11
-14.4483
 21
-73.9591
  0
LINE
  8
0
 10
-14.4483
 20
-73.9591
 11
-14.773
 21
-74.1036
  0
LINE
  8
0
 10
-14.773
 20
-74.1036
 11
-15.1206
 21
-74.1775
  0
LINE
  8
0
 10
-15.1206
 20
-74.1775
 11
-15.476
 21
-74.1775
  0
LINE
  8
0
 10
-15.476
 20
-74.1775
 11
-15.8237
 21
-74.1036
  0
LINE
  8
0
 10
-15.8237
 20
-74.1036
 11
-16.1483
 21
-73.9591
  0
LINE
  8
0
 10
-16.1483
 20
-73.9591
 11
-16.4359
 21
-73.7502
  0
LINE
  8
0
 10
-16.4359
 20
-73.7502
 11
-16.6737
 21
-73.4861
  0
LINE
  8
0
 10
-16.6737
 20
-73.4861
 11
-16.8514
 21
-73.1783
  0
LINE
  8
0
 10
-16.8514
 20
-73.1783
 11
-16.9612
 21
-72.8403
  0
LINE
  8
0
 10
-16.9612
 20
-72.8403
 11
-16.9983
 21
-72.4868
  0
LINE
  8
0
 10
81.1101
 20
-44.7089
 11
81.1473
 21
-44.3555
  0
LINE
  8
0
 10
81.1473
 20
-44.3555
 11
81.2571
 21
-44.0175
  0
LINE
  8
0
 10
81.2571
 20
-44.0175
 11
81.4348
 21
-43.7097
  0
LINE
  8
0
 10
81.4348
 20
-43.7097
 11
81.6726
 21
-43.4456
  0
LINE
  8
0
 10
81.6726
 20
-43.4456
 11
81.9601
 21
-43.2367
  0
LINE
  8
0
 10
81.9601
 20
-43.2367
 11
82.2848
 21
-43.0921
  0
LINE
  8
0
 10
82.2848
 20
-43.0921
 11
82.6324
 21
-43.0182
  0
LINE
  8
0
 10
82.6324
 20
-43.0182
 11
82.9878
 21
-43.0182
  0
LINE
  8
0
 10
82.9878
 20
-43.0182
 11
83.3355
 21
-43.0921
  0
LINE
  8
0
 10
83.3355
 20
-43.0921
 11
83.6601
 21
-43.2367
  0
LINE
  8
0
 10
83.6601
 20
-43.2367
 11
83.9476
 21
-43.4456
  0
LINE
  8
0
 10
83.9476
 20
-43.4456
 11
84.1855
 21
-43.7097
  0
LINE
  8
0
 10
84.1855
 20
-43.7097
 11
84.3632
 21
-44.0175
  0
LINE
  8
0
 10
84.3632
 20
-44.0175
 11
84.473
 21
-44.3555
  0
LINE
  8
0
 10
84.473
 20
-44.3555
 11
84.5101
 21
-44.7089
  0
LINE
  8
0
 10
84.5101
 20
-44.7089
 11
84.473
 21
-45.0624
  0
LINE
  8
0
 10
84.473
 20
-45.0624
 11
84.3632
 21
-45.4004
  0
LINE
  8
0
 10
84.3632
 20
-45.4004
 11
84.1855
 21
-45.7081
  0
LINE
  8
0
 10
84.1855
 20
-45.7081
 11
83.9476
 21
-45.9722
  0
LINE
  8
0
 10
83.9476
 20
-45.9722
 11
83.6601
 21
-46.1811
  0
LINE
  8
0
 10
83.6601
 20
-46.1811
 11
83.3355
 21
-46.3257
  0
LINE
  8
0
 10
83.3355
 20
-46.3257
 11
82.9878
 21
-46.3996
  0
LINE
  8
0
 10
82.9878
 20
-46.3996
 11
82.6324
 21
-46.3996
  0
LINE
  8
0
 10
82.6324
 20
-46.3996
 11
82.2848
 21
-46.3257
  0
LINE
  8
0
 10
82.2848
 20
-46.3257
 11
81.9601
 21
-46.1811
  0
LINE
  8
0
 10
81.9601
 20
-46.1811
 11
81.6726
 21
-45.9722
  0
LINE
  8
0
 10
81.6726
 20
-45.9722
 11
81.4348
 21
-45.7081
  0
LINE
  8
0
 10
81.4348
 20
-45.7081
 11
81.2571
 21
-45.4004
  0
LINE
  8
0
 10
81.2571
 20
-45.4004
 11
81.1473
 21
-45.0624
  0
LINE
  8
0
 10
81.1473
 20
-45.0624
 11
81.1101
 21
-44.7089
  0
LINE
  8
0
 10
81.1101
 20
39.7089
 11
81.1473
 21
40.0624
  0
LINE
  8
0
 10
81.1473
 20
40.0624
 11
81.2571
 21
40.4004
  0
LINE
  8
0
 10
81.2571
 20
40.4004
 11
81.4348
 21
40.7081
  0
LINE
  8
0
 10
81.4348
 20
40.7081
 11
81.6726
 21
40.9722
  0
LINE
  8
0
 10
81.6726
 20
40.9722
 11
81.9601
 21
41.1811
  0
LINE
  8
0
 10
81.9601
 20
41.1811
 11
82.2848
 21
41.3257
  0
LINE
  8
0
 10
82.2848
 20
41.3257
 11
82.6324
 21
41.3996
  0
LINE
  8
0
 10
82.6324
 20
41.3996
 11
82.9878
 21
41.3996
  0
LINE
  8
0
 10
82.9878
 20
41.3996
 11
83.3355
 21
41.3257
  0
LINE
  8
0
 10
83.3355
 20
41.3257
 11
83.6601
 21
41.1811
  0
LINE
  8
0
 10
83.6601
 20
41.1811
 11
83.9476
 21
40.9722
  0
LINE
  8
0
 10
83.9476
 20
40.9722
 11
84.1855
 21
40.7081
  0
LINE
  8
0
 10
84.1855
 20
40.7081
 11
84.3632
 21
40.4004
  0
LINE
  8
0
 10
84.3632
 20
40.4004
 11
84.473
 21
40.0624
  0
LINE
  8
0
 10
84.473
 20
40.0624
 11
84.5101
 21
39.7089
  0
LINE
  8
0
 10
84.5101
 20
39.7089
 11
84.473
 21
39.3555
  0
LINE
  8
0
 10
84.473
 20
39.3555
 11
84.3632
 21
39.0175
  0
LINE
  8
0
 10
84.3632
 20
39.0175
 11
84.1855
 21
38.7097
  0
LINE
  8
0
 10
84.1855
 20
38.7097
 11
83.9476
 21
38.4456
  0
LINE
  8
0
 10
83.9476
 20
38.4456
 11
83.6601
 21
38.2367
  0
LINE
  8
0
 10
83.6601
 20
38.2367
 11
83.3355
 21
38.0921
  0
LINE
  8
0
 10
83.3355
 20
38.0921
 11
82.9878
 21
38.0182
  0
LINE
  8
0
 10
82.9878
 20
38.0182
 11
82.6324
 21
38.0182
  0
LINE
  8
0
 10
82.6324
 20
38.0182
 11
82.2848
 21
38.0921
  0
LINE
  8
0
 10
82.2848
 20
38.0921
 11
81.9601
 21
38.2367
  0
LINE
  8
0
 10
81.9601
 20
38.2367
 11
81.6726
 21
38.4456
  0
LINE
  8
0
 10
81.6726
 20
38.4456
 11
81.4348
 21
38.7097
  0
LINE
  8
0
 10
81.4348
 20
38.7097
 11
81.2571
 21
39.0175
  0
LINE
  8
0
 10
81.2571
 20
39.0175
 11
81.1473
 21
39.3555
  0
LINE
  8
0
 10
81.1473
 20
39.3555
 11
81.1101
 21
39.7089
  0
ENDSEC
  0
SECTION
  2
OBJECTS
  0
DICTIONARY
  0
ENDSEC
  0
EOF
