  0
SECTION
  2
BLOCKS
  0
ENDSEC
  0
SECTION
  2
ENTITIES
  0
LINE
  8
0
 10
-89.4636
 20
-57.8474
 11
-83.6081
 21
-65.2917
  0
LINE
  8
0
 10
-83.6081
 20
-65.2917
 11
-78.9333
 21
-71.2349
  0
LINE
  8
0
 10
-78.9333
 20
-71.2349
 11
-78.9333
 21
-71.2349
  0
LINE
  8
0
 10
-78.9333
 20
-71.2349
 11
-78.9333
 21
-71.2349
  0
LINE
  8
0
 10
-78.9333
 20
-71.2349
 11
-77.7367
 21
-74.2271
  0
LINE
  8
0
 10
-77.7367
 20
-74.2271
 11
-77.1707
 21
-75.6423
  0
LINE
  8
0
 10
-77.1707
 20
-75.6423
 11
-73.7755
 21
-79.9316
  0
LINE
  8
0
 10
-73.7755
 20
-79.9316
 11
-66.5975
 21
-88.9998
  0
LINE
  8
0
 10
-66.5975
 20
-88.9998
 11
-66.5509
 21
-89.0587
  0
LINE
  8
0
 10
-66.5509
 20
-89.0587
 11
-66.5357
 21
-89.0779
  0
LINE
  8
0
 10
-66.5357
 20
-89.0779
 11
-64.3059
 21
-89.6032
  0
LINE
  8
0
 10
-64.3059
 20
-89.6032
 11
-57.4537
 21
-91.2173
  0
LINE
  8
0
 10
-57.4537
 20
-91.2173
 11
-52.8666
 21
-88.0053
  0
LINE
  8
0
 10
-52.8666
 20
-88.0053
 11
-45.841
 21
-83.0859
  0
LINE
  8
0
 10
-45.841
 20
-83.0859
 11
-45.6528
 21
-83.0602
  0
LINE
  8
0
 10
-45.6528
 20
-83.0602
 11
-45.3425
 21
-83.0178
  0
LINE
  8
0
 10
-45.3425
 20
-83.0178
 11
-45.2906
 21
-82.9936
  0
LINE
  8
0
 10
-45.2906
 20
-82.9936
 11
-36.4619
 21
-78.8767
  0
LINE
  8
0
 10
-36.4619
 20
-78.8767
 11
-36.4616
 21
-78.8765
  0
LINE
  8
0
 10
-36.4616
 20
-78.8765
 11
-31.0515
 21
-76.3538
  0
LINE
  8
0
 10
-31.0515
 20
-76.3538
 11
-31.0515
 21
-76.3538
  0
LINE
  8
0
 10
-31.0515
 20
-76.3538
 11
-30.9932
 21
-76.3266
  0
LINE
  8
0
 10
-30.9932
 20
-76.3266
 11
-30.6087
 21
-75.8797
  0
LINE
  8
0
 10
-30.6087
 20
-75.8797
 11
-30.6087
 21
-75.8797
  0
LINE
  8
0
 10
-30.6087
 20
-75.8797
 11
-30.4425
 21
-75.6866
  0
LINE
  8
0
 10
-30.4425
 20
-75.6866
 11
-30.0681
 21
-74.074
  0
LINE
  8
0
 10
-30.0681
 20
-74.074
 11
-30.0558
 21
-74.0528
  0
LINE
  8
0
 10
-30.0558
 20
-74.0528
 11
-29.8071
 21
-73.2873
  0
LINE
  8
0
 10
-29.8071
 20
-73.2873
 11
-29.7423
 21
-72.6714
  0
LINE
  8
0
 10
-29.7423
 20
-72.6714
 11
-29.2388
 21
-70.5029
  0
LINE
  8
0
 10
-29.2388
 20
-70.5029
 11
-25.7931
 21
-55.6649
  0
LINE
  8
0
 10
-25.7931
 20
-55.6649
 11
-19.9884
 21
-56.3605
  0
LINE
  8
0
 10
-19.9884
 20
-56.3605
 11
-4.48169
 21
-58.2189
  0
LINE
  8
0
 10
-4.48169
 20
-58.2189
 11
2.2176
 21
-58.2189
  0
LINE
  8
0
 10
2.2176
 20
-58.2189
 11
15.513
 21
-58.2189
  0
LINE
  8
0
 10
15.513
 20
-58.2189
 11
20.3579
 21
-52.8944
  0
LINE
  8
0
 10
20.3579
 20
-52.8944
 11
22.7991
 21
-50.2115
  0
LINE
  8
0
 10
22.7991
 20
-50.2115
 11
28.0224
 21
-50.2115
  0
LINE
  8
0
 10
28.0224
 20
-50.2115
 11
36.145
 21
-50.2115
  0
LINE
  8
0
 10
36.145
 20
-50.2115
 11
39.1712
 21
-50.2115
  0
LINE
  8
0
 10
39.1712
 20
-50.2115
 11
39.2278
 21
-50.2115
  0
LINE
  8
0
 10
39.2278
 20
-50.2115
 11
41.8388
 21
-50.2115
  0
LINE
  8
0
 10
41.8388
 20
-50.2115
 11
44.0861
 21
-47.9018
  0
LINE
  8
0
 10
44.0861
 20
-47.9018
 11
44.5428
 21
-47.57
  0
LINE
  8
0
 10
44.5428
 20
-47.57
 11
45.0813
 21
-46.9719
  0
LINE
  8
0
 10
45.0813
 20
-46.9719
 11
45.2132
 21
-46.7434
  0
LINE
  8
0
 10
45.2132
 20
-46.7434
 11
46.1215
 21
-45.81
  0
LINE
  8
0
 10
46.1215
 20
-45.81
 11
48.4178
 21
-43.45
  0
LINE
  8
0
 10
48.4178
 20
-43.45
 11
48.5349
 21
-43.2693
  0
LINE
  8
0
 10
48.5349
 20
-43.2693
 11
48.7533
 21
-42.9323
  0
LINE
  8
0
 10
48.7533
 20
-42.9323
 11
48.4285
 21
-35.9522
  0
LINE
  8
0
 10
48.4285
 20
-35.9522
 11
47.9847
 21
-26.4149
  0
LINE
  8
0
 10
47.9847
 20
-26.4149
 11
47.9541
 21
-25.0746
  0
LINE
  8
0
 10
47.9541
 20
-25.0746
 11
47.8495
 21
-20.5
  0
LINE
  8
0
 10
47.8495
 20
-20.5
 11
47.8495
 21
-3.5
  0
LINE
  8
0
 10
47.8495
 20
-3.5
 11
47.9541
 21
1.07465
  0
LINE
  8
0
 10
47.9541
 20
1.07465
 11
47.9847
 21
2.41492
  0
LINE
  8
0
 10
47.9847
 20
2.41492
 11
48.4285
 21
11.9522
  0
LINE
  8
0
 10
48.4285
 20
11.9522
 11
48.7533
 21
18.9323
  0
LINE
  8
0
 10
48.7533
 20
18.9323
 11
48.5349
 21
19.2693
  0
LINE
  8
0
 10
48.5349
 20
19.2693
 11
48.4178
 21
19.45
  0
LINE
  8
0
 10
48.4178
 20
19.45
 11
46.1215
 21
21.81
  0
LINE
  8
0
 10
46.1215
 20
21.81
 11
41.8388
 21
26.2115
  0
LINE
  8
0
 10
41.8388
 20
26.2115
 11
39.2278
 21
26.2115
  0
LINE
  8
0
 10
39.2278
 20
26.2115
 11
39.1712
 21
26.2115
  0
LINE
  8
0
 10
39.1712
 20
26.2115
 11
36.145
 21
26.2115
  0
LINE
  8
0
 10
36.145
 20
26.2115
 11
28.0224
 21
26.2115
  0
LINE
  8
0
 10
28.0224
 20
26.2115
 11
19.3523
 21
26.2115
  0
LINE
  8
0
 10
19.3523
 20
26.2115
 11
14.4592
 21
31.8266
  0
LINE
  8
0
 10
14.4592
 20
31.8266
 11
9.34644
 21
37.6938
  0
LINE
  8
0
 10
9.34644
 20
37.6938
 11
9.07765
 21
37.9721
  0
LINE
  8
0
 10
9.07765
 20
37.9721
 11
8.84644
 21
38.2115
  0
LINE
  8
0
 10
8.84644
 20
38.2115
 11
1.16401
 21
38.2115
  0
LINE
  8
0
 10
1.16401
 20
38.2115
 11
1.09987
 21
38.2115
  0
LINE
  8
0
 10
1.09987
 20
38.2115
 11
-7.67088
 21
38.2115
  0
LINE
  8
0
 10
-7.67088
 20
38.2115
 11
-10.0522
 21
39.637
  0
LINE
  8
0
 10
-10.0522
 20
39.637
 11
-12.3817
 21
41.0315
  0
LINE
  8
0
 10
-12.3817
 20
41.0315
 11
-20.3741
 21
41.0315
  0
LINE
  8
0
 10
-20.3741
 20
41.0315
 11
-28.5077
 21
41.0315
  0
LINE
  8
0
 10
-28.5077
 20
41.0315
 11
-28.5444
 21
41.0315
  0
LINE
  8
0
 10
-28.5444
 20
41.0315
 11
-29.9264
 21
39.3127
  0
LINE
  8
0
 10
-29.9264
 20
39.3127
 11
-30.812
 21
38.2115
  0
LINE
  8
0
 10
-30.812
 20
38.2115
 11
-41.3264
 21
38.2115
  0
LINE
  8
0
 10
-41.3264
 20
38.2115
 11
-46.2863
 21
38.2115
  0
LINE
  8
0
 10
-46.2863
 20
38.2115
 11
-48.7239
 21
38.2115
  0
LINE
  8
0
 10
-48.7239
 20
38.2115
 11
-48.7484
 21
38.2115
  0
LINE
  8
0
 10
-48.7484
 20
38.2115
 11
-49.5831
 21
38.2115
  0
LINE
  8
0
 10
-49.5831
 20
38.2115
 11
-60.702
 21
38.2115
  0
LINE
  8
0
 10
-60.702
 20
38.2115
 11
-64.3959
 21
38.2115
  0
LINE
  8
0
 10
-64.3959
 20
38.2115
 11
-64.4137
 21
38.2115
  0
LINE
  8
0
 10
-64.4137
 20
38.2115
 11
-65.2313
 21
37.9793
  0
LINE
  8
0
 10
-65.2313
 20
37.9793
 11
-67.9548
 21
37.2059
  0
LINE
  8
0
 10
-67.9548
 20
37.2059
 11
-74.9548
 21
30.2059
  0
LINE
  8
0
 10
-74.9548
 20
30.2059
 11
-75.5183
 21
25.9994
  0
LINE
  8
0
 10
-75.5183
 20
25.9994
 11
-77.1806
 21
13.592
  0
LINE
  8
0
 10
-77.1806
 20
13.592
 11
-77.4236
 21
9.90125
  0
LINE
  8
0
 10
-77.4236
 20
9.90125
 11
-77.5059
 21
8.65
  0
LINE
  8
0
 10
-77.5059
 20
8.65
 11
-77.5059
 21
-8.65
  0
LINE
  8
0
 10
-77.5059
 20
-8.65
 11
-77.4236
 21
-9.90125
  0
LINE
  8
0
 10
-77.4236
 20
-9.90125
 11
-77.1806
 21
-13.592
  0
LINE
  8
0
 10
-77.1806
 20
-13.592
 11
-75.5183
 21
-25.9994
  0
LINE
  8
0
 10
-75.5183
 20
-25.9994
 11
-74.9641
 21
-30.1363
  0
LINE
  8
0
 10
-74.9641
 20
-30.1363
 11
-77.6748
 21
-38.997
  0
LINE
  8
0
 10
-77.6748
 20
-38.997
 11
-78.392
 21
-41.3412
  0
LINE
  8
0
 10
-78.392
 20
-41.3412
 11
-84.2963
 21
-45.4754
  0
LINE
  8
0
 10
-84.2963
 20
-45.4754
 11
-88.1298
 21
-48.1597
  0
LINE
  8
0
 10
-88.1298
 20
-48.1597
 11
-88.1298
 21
-48.1597
  0
LINE
  8
0
 10
-88.1298
 20
-48.1597
 11
-88.168
 21
-48.1864
  0
LINE
  8
0
 10
-88.168
 20
-48.1864
 11
-88.5768
 21
-48.613
  0
LINE
  8
0
 10
-88.5768
 20
-48.613
 11
-88.9115
 21
-48.9623
  0
LINE
  8
0
 10
-88.9115
 20
-48.9623
 11
-89.1932
 21
-53.4959
  0
LINE
  8
0
 10
-89.1932
 20
-53.4959
 11
-89.4636
 21
-57.8474
  0
LINE
  8
0
 10
-87.1997
 20
-56.1284
 11
-87.0211
 21
-53.2547
  0
LINE
  8
0
 10
-87.0211
 20
-53.2547
 11
-86.8219
 21
-50.0487
  0
LINE
  8
0
 10
-86.8219
 20
-50.0487
 11
-83.919
 21
-48.016
  0
LINE
  8
0
 10
-83.919
 20
-48.016
 11
-75.7181
 21
-42.2737
  0
LINE
  8
0
 10
-75.7181
 20
-42.2737
 11
-75.6698
 21
-42.2399
  0
LINE
  8
0
 10
-75.6698
 20
-42.2399
 11
-75.6499
 21
-42.2191
  0
LINE
  8
0
 10
-75.6499
 20
-42.2191
 11
-75.5669
 21
-43.0094
  0
LINE
  8
0
 10
-75.5669
 20
-43.0094
 11
-75.3182
 21
-43.7748
  0
LINE
  8
0
 10
-75.3182
 20
-43.7748
 11
-74.9157
 21
-44.4719
  0
LINE
  8
0
 10
-74.9157
 20
-44.4719
 11
-74.3772
 21
-45.07
  0
LINE
  8
0
 10
-74.3772
 20
-45.07
 11
-73.726
 21
-45.5431
  0
LINE
  8
0
 10
-73.726
 20
-45.5431
 11
-72.9907
 21
-45.8705
  0
LINE
  8
0
 10
-72.9907
 20
-45.8705
 11
-72.2035
 21
-46.0378
  0
LINE
  8
0
 10
-72.2035
 20
-46.0378
 11
-71.3986
 21
-46.0378
  0
LINE
  8
0
 10
-71.3986
 20
-46.0378
 11
-70.6113
 21
-45.8705
  0
LINE
  8
0
 10
-70.6113
 20
-45.8705
 11
-69.876
 21
-45.5431
  0
LINE
  8
0
 10
-69.876
 20
-45.5431
 11
-69.2249
 21
-45.07
  0
LINE
  8
0
 10
-69.2249
 20
-45.07
 11
-68.6863
 21
-44.4719
  0
LINE
  8
0
 10
-68.6863
 20
-44.4719
 11
-68.2839
 21
-43.7748
  0
LINE
  8
0
 10
-68.2839
 20
-43.7748
 11
-68.0352
 21
-43.0094
  0
LINE
  8
0
 10
-68.0352
 20
-43.0094
 11
-67.951
 21
-42.2089
  0
LINE
  8
0
 10
-67.951
 20
-42.2089
 11
-68.0352
 21
-41.4084
  0
LINE
  8
0
 10
-68.0352
 20
-41.4084
 11
-68.2839
 21
-40.643
  0
LINE
  8
0
 10
-68.2839
 20
-40.643
 11
-68.6863
 21
-39.9459
  0
LINE
  8
0
 10
-68.6863
 20
-39.9459
 11
-69.2249
 21
-39.3478
  0
LINE
  8
0
 10
-69.2249
 20
-39.3478
 11
-69.876
 21
-38.8747
  0
LINE
  8
0
 10
-69.876
 20
-38.8747
 11
-70.6113
 21
-38.5473
  0
LINE
  8
0
 10
-70.6113
 20
-38.5473
 11
-71.3986
 21
-38.38
  0
LINE
  8
0
 10
-71.3986
 20
-38.38
 11
-72.2035
 21
-38.38
  0
LINE
  8
0
 10
-72.2035
 20
-38.38
 11
-72.9907
 21
-38.5473
  0
LINE
  8
0
 10
-72.9907
 20
-38.5473
 11
-73.726
 21
-38.8747
  0
LINE
  8
0
 10
-73.726
 20
-38.8747
 11
-74.3772
 21
-39.3478
  0
LINE
  8
0
 10
-74.3772
 20
-39.3478
 11
-74.9157
 21
-39.9459
  0
LINE
  8
0
 10
-74.9157
 20
-39.9459
 11
-75.3182
 21
-40.643
  0
LINE
  8
0
 10
-75.3182
 20
-40.643
 11
-75.3924
 21
-40.8715
  0
LINE
  8
0
 10
-75.3924
 20
-40.8715
 11
-75.5672
 21
-40.6493
  0
LINE
  8
0
 10
-75.5672
 20
-40.6493
 11
-75.281
 21
-39.5472
  0
LINE
  8
0
 10
-75.281
 20
-39.5472
 11
-72.8548
 21
-30.2059
  0
LINE
  8
0
 10
-72.8548
 20
-30.2059
 11
-72.8548
 21
-30.1059
  0
LINE
  8
0
 10
-72.8548
 20
-30.1059
 11
-73.3914
 21
-26.1006
  0
LINE
  8
0
 10
-73.3914
 20
-26.1006
 11
-75.0806
 21
-13.492
  0
LINE
  8
0
 10
-75.0806
 20
-13.492
 11
-75.3275
 21
-9.74141
  0
LINE
  8
0
 10
-75.3275
 20
-9.74141
 11
-75.4059
 21
-8.54999
  0
LINE
  8
0
 10
-75.4059
 20
-8.54999
 11
-75.4059
 21
8.54999
  0
LINE
  8
0
 10
-75.4059
 20
8.54999
 11
-75.3275
 21
9.74141
  0
LINE
  8
0
 10
-75.3275
 20
9.74141
 11
-75.0806
 21
13.492
  0
LINE
  8
0
 10
-75.0806
 20
13.492
 11
-73.3914
 21
26.1006
  0
LINE
  8
0
 10
-73.3914
 20
26.1006
 11
-72.8548
 21
30.1059
  0
LINE
  8
0
 10
-72.8548
 20
30.1059
 11
-67.8548
 21
35.1059
  0
LINE
  8
0
 10
-67.8548
 20
35.1059
 11
-67.0069
 21
35.2183
  0
LINE
  8
0
 10
-67.0069
 20
35.2183
 11
-66.8032
 21
35.2453
  0
LINE
  8
0
 10
-66.8032
 20
35.2453
 11
-66.9427
 21
35.1831
  0
LINE
  8
0
 10
-66.9427
 20
35.1831
 11
-67.5939
 21
34.71
  0
LINE
  8
0
 10
-67.5939
 20
34.71
 11
-68.1324
 21
34.1119
  0
LINE
  8
0
 10
-68.1324
 20
34.1119
 11
-68.5349
 21
33.4149
  0
LINE
  8
0
 10
-68.5349
 20
33.4149
 11
-68.7836
 21
32.6494
  0
LINE
  8
0
 10
-68.7836
 20
32.6494
 11
-68.8677
 21
31.8489
  0
LINE
  8
0
 10
-68.8677
 20
31.8489
 11
-68.7836
 21
31.0485
  0
LINE
  8
0
 10
-68.7836
 20
31.0485
 11
-68.5349
 21
30.283
  0
LINE
  8
0
 10
-68.5349
 20
30.283
 11
-68.1324
 21
29.586
  0
LINE
  8
0
 10
-68.1324
 20
29.586
 11
-67.5939
 21
28.9878
  0
LINE
  8
0
 10
-67.5939
 20
28.9878
 11
-66.9427
 21
28.5147
  0
LINE
  8
0
 10
-66.9427
 20
28.5147
 11
-66.2074
 21
28.1874
  0
LINE
  8
0
 10
-66.2074
 20
28.1874
 11
-65.4201
 21
28.02
  0
LINE
  8
0
 10
-65.4201
 20
28.02
 11
-64.6153
 21
28.02
  0
LINE
  8
0
 10
-64.6153
 20
28.02
 11
-63.828
 21
28.1874
  0
LINE
  8
0
 10
-63.828
 20
28.1874
 11
-63.0927
 21
28.5147
  0
LINE
  8
0
 10
-63.0927
 20
28.5147
 11
-62.4416
 21
28.9878
  0
LINE
  8
0
 10
-62.4416
 20
28.9878
 11
-61.903
 21
29.586
  0
LINE
  8
0
 10
-61.903
 20
29.586
 11
-61.5006
 21
30.283
  0
LINE
  8
0
 10
-61.5006
 20
30.283
 11
-61.2518
 21
31.0485
  0
LINE
  8
0
 10
-61.2518
 20
31.0485
 11
-61.1677
 21
31.8489
  0
LINE
  8
0
 10
-61.1677
 20
31.8489
 11
-61.2518
 21
32.6494
  0
LINE
  8
0
 10
-61.2518
 20
32.6494
 11
-61.5006
 21
33.4149
  0
LINE
  8
0
 10
-61.5006
 20
33.4149
 11
-61.903
 21
34.1119
  0
LINE
  8
0
 10
-61.903
 20
34.1119
 11
-62.4416
 21
34.71
  0
LINE
  8
0
 10
-62.4416
 20
34.71
 11
-63.0927
 21
35.1831
  0
LINE
  8
0
 10
-63.0927
 20
35.1831
 11
-63.828
 21
35.5105
  0
LINE
  8
0
 10
-63.828
 20
35.5105
 11
-64.2019
 21
35.59
  0
LINE
  8
0
 10
-64.2019
 20
35.59
 11
-63.633
 21
35.6654
  0
LINE
  8
0
 10
-63.633
 20
35.6654
 11
-51.8126
 21
35.6654
  0
LINE
  8
0
 10
-51.8126
 20
35.6654
 11
-51.7982
 21
35.6654
  0
LINE
  8
0
 10
-51.7982
 20
35.6654
 11
-48.8449
 21
35.6654
  0
LINE
  8
0
 10
-48.8449
 20
35.6654
 11
-46.4248
 21
35.6654
  0
LINE
  8
0
 10
-46.4248
 20
35.6654
 11
-45.6529
 21
35.6654
  0
LINE
  8
0
 10
-45.6529
 20
35.6654
 11
-34.0585
 21
35.6654
  0
LINE
  8
0
 10
-34.0585
 20
35.6654
 11
-30.1624
 21
35.6654
  0
LINE
  8
0
 10
-30.1624
 20
35.6654
 11
-30.1346
 21
35.6654
  0
LINE
  8
0
 10
-30.1346
 20
35.6654
 11
-28.6393
 21
37.6185
  0
LINE
  8
0
 10
-28.6393
 20
37.6185
 11
-27.9756
 21
38.4854
  0
LINE
  8
0
 10
-27.9756
 20
38.4854
 11
-17.9152
 21
38.4854
  0
LINE
  8
0
 10
-17.9152
 20
38.4854
 11
-17.8878
 21
38.4854
  0
LINE
  8
0
 10
-17.8878
 20
38.4854
 11
-12.0008
 21
38.4854
  0
LINE
  8
0
 10
-12.0008
 20
38.4854
 11
-10.1138
 21
37.3267
  0
LINE
  8
0
 10
-10.1138
 20
37.3267
 11
-10.1137
 21
37.3267
  0
LINE
  8
0
 10
-10.1137
 20
37.3267
 11
-7.40814
 21
35.6654
  0
LINE
  8
0
 10
-7.40814
 20
35.6654
 11
-7.40814
 21
35.6654
  0
LINE
  8
0
 10
-7.40814
 20
35.6654
 11
2.37953
 21
35.6654
  0
LINE
  8
0
 10
2.37953
 20
35.6654
 11
9.05933
 21
35.6654
  0
LINE
  8
0
 10
9.05933
 20
35.6654
 11
13.4834
 21
30.5781
  0
LINE
  8
0
 10
13.4834
 20
30.5781
 11
19.4949
 21
23.6654
  0
LINE
  8
0
 10
19.4949
 20
23.6654
 11
29.2652
 21
23.6654
  0
LINE
  8
0
 10
29.2652
 20
23.6654
 11
29.3017
 21
23.6654
  0
LINE
  8
0
 10
29.3017
 20
23.6654
 11
36.386
 21
23.6654
  0
LINE
  8
0
 10
36.386
 20
23.6654
 11
39.3032
 21
23.6654
  0
LINE
  8
0
 10
39.3032
 20
23.6654
 11
41.9814
 21
23.6654
  0
LINE
  8
0
 10
41.9814
 20
23.6654
 11
44.2957
 21
21.2869
  0
LINE
  8
0
 10
44.2957
 20
21.2869
 11
46.3375
 21
19.1884
  0
LINE
  8
0
 10
46.3375
 20
19.1884
 11
46.0683
 21
13.4025
  0
LINE
  8
0
 10
46.0683
 20
13.4025
 11
45.581
 21
2.92833
  0
LINE
  8
0
 10
45.581
 20
2.92833
 11
45.5806
 21
2.92074
  0
LINE
  8
0
 10
45.5806
 20
2.92074
 11
45.5767
 21
2.83607
  0
LINE
  8
0
 10
45.5767
 20
2.83607
 11
45.442
 21
-3.05719
  0
LINE
  8
0
 10
45.442
 20
-3.05719
 11
45.4341
 21
-3.4
  0
LINE
  8
0
 10
45.4341
 20
-3.4
 11
45.4341
 21
-20.6
  0
LINE
  8
0
 10
45.4341
 20
-20.6
 11
45.442
 21
-20.9428
  0
LINE
  8
0
 10
45.442
 20
-20.9428
 11
45.5767
 21
-26.8361
  0
LINE
  8
0
 10
45.5767
 20
-26.8361
 11
45.5806
 21
-26.9207
  0
LINE
  8
0
 10
45.5806
 20
-26.9207
 11
45.581
 21
-26.9283
  0
LINE
  8
0
 10
45.581
 20
-26.9283
 11
46.0683
 21
-37.4025
  0
LINE
  8
0
 10
46.0683
 20
-37.4025
 11
46.3375
 21
-43.1884
  0
LINE
  8
0
 10
46.3375
 20
-43.1884
 11
45.7086
 21
-43.8348
  0
LINE
  8
0
 10
45.7086
 20
-43.8348
 11
45.4838
 21
-43.143
  0
LINE
  8
0
 10
45.4838
 20
-43.143
 11
45.0813
 21
-42.4459
  0
LINE
  8
0
 10
45.0813
 20
-42.4459
 11
44.5428
 21
-41.8478
  0
LINE
  8
0
 10
44.5428
 20
-41.8478
 11
43.8916
 21
-41.3747
  0
LINE
  8
0
 10
43.8916
 20
-41.3747
 11
43.1563
 21
-41.0473
  0
LINE
  8
0
 10
43.1563
 20
-41.0473
 11
42.3691
 21
-40.88
  0
LINE
  8
0
 10
42.3691
 20
-40.88
 11
41.5642
 21
-40.88
  0
LINE
  8
0
 10
41.5642
 20
-40.88
 11
40.7769
 21
-41.0473
  0
LINE
  8
0
 10
40.7769
 20
-41.0473
 11
40.0416
 21
-41.3747
  0
LINE
  8
0
 10
40.0416
 20
-41.3747
 11
39.3905
 21
-41.8478
  0
LINE
  8
0
 10
39.3905
 20
-41.8478
 11
38.8519
 21
-42.4459
  0
LINE
  8
0
 10
38.8519
 20
-42.4459
 11
38.4495
 21
-43.143
  0
LINE
  8
0
 10
38.4495
 20
-43.143
 11
38.2008
 21
-43.9084
  0
LINE
  8
0
 10
38.2008
 20
-43.9084
 11
38.1166
 21
-44.7089
  0
LINE
  8
0
 10
38.1166
 20
-44.7089
 11
38.2008
 21
-45.5094
  0
LINE
  8
0
 10
38.2008
 20
-45.5094
 11
38.4495
 21
-46.2748
  0
LINE
  8
0
 10
38.4495
 20
-46.2748
 11
38.8519
 21
-46.9719
  0
LINE
  8
0
 10
38.8519
 20
-46.9719
 11
39.3905
 21
-47.57
  0
LINE
  8
0
 10
39.3905
 20
-47.57
 11
39.5218
 21
-47.6654
  0
LINE
  8
0
 10
39.5218
 20
-47.6654
 11
39.3032
 21
-47.6654
  0
LINE
  8
0
 10
39.3032
 20
-47.6654
 11
36.386
 21
-47.6654
  0
LINE
  8
0
 10
36.386
 20
-47.6654
 11
29.3017
 21
-47.6654
  0
LINE
  8
0
 10
29.3017
 20
-47.6654
 11
29.2652
 21
-47.6654
  0
LINE
  8
0
 10
29.2652
 20
-47.6654
 11
19.4949
 21
-47.6654
  0
LINE
  8
0
 10
19.4949
 20
-47.6654
 11
19.3014
 21
-47.964
  0
LINE
  8
0
 10
19.3014
 20
-47.964
 11
19.1594
 21
-48.183
  0
LINE
  8
0
 10
19.1594
 20
-48.183
 11
19.1998
 21
-49.0513
  0
LINE
  8
0
 10
19.1998
 20
-49.0513
 11
19.2493
 21
-50.1149
  0
LINE
  8
0
 10
19.2493
 20
-50.1149
 11
19.2514
 21
-50.1582
  0
LINE
  8
0
 10
19.2514
 20
-50.1582
 11
19.2538
 21
-50.2115
  0
LINE
  8
0
 10
19.2538
 20
-50.2115
 11
19.2538
 21
-50.2115
  0
LINE
  8
0
 10
19.2538
 20
-50.2115
 11
19.5441
 21
-50.2115
  0
LINE
  8
0
 10
19.5441
 20
-50.2115
 11
17.7865
 21
-52.0662
  0
LINE
  8
0
 10
17.7865
 20
-52.0662
 11
14.627
 21
-55.4002
  0
LINE
  8
0
 10
14.627
 20
-55.4002
 11
9.40907
 21
-55.4002
  0
LINE
  8
0
 10
9.40907
 20
-55.4002
 11
-4.20856
 21
-55.4002
  0
LINE
  8
0
 10
-4.20856
 20
-55.4002
 11
-20.0043
 21
-53.7121
  0
LINE
  8
0
 10
-20.0043
 20
-53.7121
 11
-26.1316
 21
-53.0573
  0
LINE
  8
0
 10
-26.1316
 20
-53.0573
 11
-26.1552
 21
-53.0615
  0
LINE
  8
0
 10
-26.1552
 20
-53.0615
 11
-26.2267
 21
-53.0741
  0
LINE
  8
0
 10
-26.2267
 20
-53.0741
 11
-26.2267
 21
-53.0741
  0
LINE
  8
0
 10
-26.2267
 20
-53.0741
 11
-26.5354
 21
-53.4979
  0
LINE
  8
0
 10
-26.5354
 20
-53.4979
 11
-26.6373
 21
-53.6378
  0
LINE
  8
0
 10
-26.6373
 20
-53.6378
 11
-28.2649
 21
-59.8922
  0
LINE
  8
0
 10
-28.2649
 20
-59.8922
 11
-30.8425
 21
-69.797
  0
LINE
  8
0
 10
-30.8425
 20
-69.797
 11
-30.9968
 21
-69.6257
  0
LINE
  8
0
 10
-30.9968
 20
-69.6257
 11
-31.6479
 21
-69.1527
  0
LINE
  8
0
 10
-31.6479
 20
-69.1527
 11
-32.3832
 21
-68.8253
  0
LINE
  8
0
 10
-32.3832
 20
-68.8253
 11
-33.1705
 21
-68.6579
  0
LINE
  8
0
 10
-33.1705
 20
-68.6579
 11
-33.9754
 21
-68.6579
  0
LINE
  8
0
 10
-33.9754
 20
-68.6579
 11
-34.7627
 21
-68.8253
  0
LINE
  8
0
 10
-34.7627
 20
-68.8253
 11
-35.4979
 21
-69.1527
  0
LINE
  8
0
 10
-35.4979
 20
-69.1527
 11
-36.1491
 21
-69.6257
  0
LINE
  8
0
 10
-36.1491
 20
-69.6257
 11
-36.6877
 21
-70.2239
  0
LINE
  8
0
 10
-36.6877
 20
-70.2239
 11
-37.0901
 21
-70.9209
  0
LINE
  8
0
 10
-37.0901
 20
-70.9209
 11
-37.3388
 21
-71.6864
  0
LINE
  8
0
 10
-37.3388
 20
-71.6864
 11
-37.4229
 21
-72.4868
  0
LINE
  8
0
 10
-37.4229
 20
-72.4868
 11
-37.3388
 21
-73.2873
  0
LINE
  8
0
 10
-37.3388
 20
-73.2873
 11
-37.0901
 21
-74.0528
  0
LINE
  8
0
 10
-37.0901
 20
-74.0528
 11
-36.6877
 21
-74.7498
  0
LINE
  8
0
 10
-36.6877
 20
-74.7498
 11
-36.1491
 21
-75.348
  0
LINE
  8
0
 10
-36.1491
 20
-75.348
 11
-35.5474
 21
-75.7851
  0
LINE
  8
0
 10
-35.5474
 20
-75.7851
 11
-41.2661
 21
-78.4518
  0
LINE
  8
0
 10
-41.2661
 20
-78.4518
 11
-45.7115
 21
-80.5248
  0
LINE
  8
0
 10
-45.7115
 20
-80.5248
 11
-46.0534
 21
-80.5632
  0
LINE
  8
0
 10
-46.0534
 20
-80.5632
 11
-46.2803
 21
-80.5888
  0
LINE
  8
0
 10
-46.2803
 20
-80.5888
 11
-46.3206
 21
-80.617
  0
LINE
  8
0
 10
-46.3206
 20
-80.617
 11
-46.3483
 21
-80.6363
  0
LINE
  8
0
 10
-46.3483
 20
-80.6363
 11
-54.0504
 21
-86.0295
  0
LINE
  8
0
 10
-54.0504
 20
-86.0295
 11
-57.8931
 21
-88.7201
  0
LINE
  8
0
 10
-57.8931
 20
-88.7201
 11
-60.0933
 21
-88.2018
  0
LINE
  8
0
 10
-60.0933
 20
-88.2018
 11
-64.3802
 21
-87.192
  0
LINE
  8
0
 10
-64.3802
 20
-87.192
 11
-71.7761
 21
-77.8485
  0
LINE
  8
0
 10
-71.7761
 20
-77.8485
 11
-74.8916
 21
-73.9127
  0
LINE
  8
0
 10
-74.8916
 20
-73.9127
 11
-75.4219
 21
-72.601
  0
LINE
  8
0
 10
-75.4219
 20
-72.601
 11
-76.6694
 21
-69.5159
  0
LINE
  8
0
 10
-76.6694
 20
-69.5159
 11
-76.7045
 21
-69.4712
  0
LINE
  8
0
 10
-76.7045
 20
-69.4712
 11
-76.7064
 21
-69.4688
  0
LINE
  8
0
 10
-76.7064
 20
-69.4688
 11
-82.2052
 21
-62.4781
  0
LINE
  8
0
 10
-82.2052
 20
-62.4781
 11
-87.1997
 21
-56.1284
  0
LINE
  8
0
 10
-73.501
 20
-42.2089
 11
-73.4639
 21
-41.8555
  0
LINE
  8
0
 10
-73.4639
 20
-41.8555
 11
-73.354
 21
-41.5175
  0
LINE
  8
0
 10
-73.354
 20
-41.5175
 11
-73.1763
 21
-41.2097
  0
LINE
  8
0
 10
-73.1763
 20
-41.2097
 11
-72.9385
 21
-40.9456
  0
LINE
  8
0
 10
-72.9385
 20
-40.9456
 11
-72.651
 21
-40.7367
  0
LINE
  8
0
 10
-72.651
 20
-40.7367
 11
-72.3264
 21
-40.5921
  0
LINE
  8
0
 10
-72.3264
 20
-40.5921
 11
-71.9787
 21
-40.5182
  0
LINE
  8
0
 10
-71.9787
 20
-40.5182
 11
-71.6233
 21
-40.5182
  0
LINE
  8
0
 10
-71.6233
 20
-40.5182
 11
-71.2757
 21
-40.5921
  0
LINE
  8
0
 10
-71.2757
 20
-40.5921
 11
-70.951
 21
-40.7367
  0
LINE
  8
0
 10
-70.951
 20
-40.7367
 11
-70.6635
 21
-40.9456
  0
LINE
  8
0
 10
-70.6635
 20
-40.9456
 11
-70.4257
 21
-41.2097
  0
LINE
  8
0
 10
-70.4257
 20
-41.2097
 11
-70.248
 21
-41.5175
  0
LINE
  8
0
 10
-70.248
 20
-41.5175
 11
-70.1382
 21
-41.8555
  0
LINE
  8
0
 10
-70.1382
 20
-41.8555
 11
-70.101
 21
-42.2089
  0
LINE
  8
0
 10
-70.101
 20
-42.2089
 11
-70.1382
 21
-42.5624
  0
LINE
  8
0
 10
-70.1382
 20
-42.5624
 11
-70.248
 21
-42.9004
  0
LINE
  8
0
 10
-70.248
 20
-42.9004
 11
-70.4257
 21
-43.2081
  0
LINE
  8
0
 10
-70.4257
 20
-43.2081
 11
-70.6635
 21
-43.4722
  0
LINE
  8
0
 10
-70.6635
 20
-43.4722
 11
-70.951
 21
-43.6811
  0
LINE
  8
0
 10
-70.951
 20
-43.6811
 11
-71.2757
 21
-43.8257
  0
LINE
  8
0
 10
-71.2757
 20
-43.8257
 11
-71.6233
 21
-43.8996
  0
LINE
  8
0
 10
-71.6233
 20
-43.8996
 11
-71.9787
 21
-43.8996
  0
LINE
  8
0
 10
-71.9787
 20
-43.8996
 11
-72.3264
 21
-43.8257
  0
LINE
  8
0
 10
-72.3264
 20
-43.8257
 11
-72.651
 21
-43.6811
  0
LINE
  8
0
 10
-72.651
 20
-43.6811
 11
-72.9385
 21
-43.4722
  0
LINE
  8
0
 10
-72.9385
 20
-43.4722
 11
-73.1763
 21
-43.2081
  0
LINE
  8
0
 10
-73.1763
 20
-43.2081
 11
-73.354
 21
-42.9004
  0
LINE
  8
0
 10
-73.354
 20
-42.9004
 11
-73.4639
 21
-42.5624
  0
LINE
  8
0
 10
-73.4639
 20
-42.5624
 11
-73.501
 21
-42.2089
  0
LINE
  8
0
 10
-66.7177
 20
31.8489
 11
-66.6806
 21
32.2024
  0
LINE
  8
0
 10
-66.6806
 20
32.2024
 11
-66.5707
 21
32.5404
  0
LINE
  8
0
 10
-66.5707
 20
32.5404
 11
-66.393
 21
32.8482
  0
LINE
  8
0
 10
-66.393
 20
32.8482
 11
-66.1552
 21
33.1123
  0
LINE
  8
0
 10
-66.1552
 20
33.1123
 11
-65.8677
 21
33.3212
  0
LINE
  8
0
 10
-65.8677
 20
33.3212
 11
-65.543
 21
33.4657
  0
LINE
  8
0
 10
-65.543
 20
33.4657
 11
-65.1954
 21
33.5396
  0
LINE
  8
0
 10
-65.1954
 20
33.5396
 11
-64.84
 21
33.5396
  0
LINE
  8
0
 10
-64.84
 20
33.5396
 11
-64.4924
 21
33.4657
  0
LINE
  8
0
 10
-64.4924
 20
33.4657
 11
-64.1677
 21
33.3212
  0
LINE
  8
0
 10
-64.1677
 20
33.3212
 11
-63.8802
 21
33.1123
  0
LINE
  8
0
 10
-63.8802
 20
33.1123
 11
-63.6424
 21
32.8482
  0
LINE
  8
0
 10
-63.6424
 20
32.8482
 11
-63.4647
 21
32.5404
  0
LINE
  8
0
 10
-63.4647
 20
32.5404
 11
-63.3549
 21
32.2024
  0
LINE
  8
0
 10
-63.3549
 20
32.2024
 11
-63.3177
 21
31.8489
  0
LINE
  8
0
 10
-63.3177
 20
31.8489
 11
-63.3549
 21
31.4955
  0
LINE
  8
0
 10
-63.3549
 20
31.4955
 11
-63.4647
 21
31.1575
  0
LINE
  8
0
 10
-63.4647
 20
31.1575
 11
-63.6424
 21
30.8497
  0
LINE
  8
0
 10
-63.6424
 20
30.8497
 11
-63.8802
 21
30.5856
  0
LINE
  8
0
 10
-63.8802
 20
30.5856
 11
-64.1677
 21
30.3767
  0
LINE
  8
0
 10
-64.1677
 20
30.3767
 11
-64.4924
 21
30.2321
  0
LINE
  8
0
 10
-64.4924
 20
30.2321
 11
-64.84
 21
30.1582
  0
LINE
  8
0
 10
-64.84
 20
30.1582
 11
-65.1954
 21
30.1582
  0
LINE
  8
0
 10
-65.1954
 20
30.1582
 11
-65.543
 21
30.2321
  0
LINE
  8
0
 10
-65.543
 20
30.2321
 11
-65.8677
 21
30.3767
  0
LINE
  8
0
 10
-65.8677
 20
30.3767
 11
-66.1552
 21
30.5856
  0
LINE
  8
0
 10
-66.1552
 20
30.5856
 11
-66.393
 21
30.8497
  0
LINE
  8
0
 10
-66.393
 20
30.8497
 11
-66.5707
 21
31.1575
  0
LINE
  8
0
 10
-66.5707
 20
31.1575
 11
-66.6806
 21
31.4955
  0
LINE
  8
0
 10
-66.6806
 20
31.4955
 11
-66.7177
 21
31.8489
  0
LINE
  8
0
 10
-35.2729
 20
-72.4868
 11
-35.2358
 21
-72.1334
  0
LINE
  8
0
 10
-35.2358
 20
-72.1334
 11
-35.126
 21
-71.7954
  0
LINE
  8
0
 10
-35.126
 20
-71.7954
 11
-34.9483
 21
-71.4876
  0
LINE
  8
0
 10
-34.9483
 20
-71.4876
 11
-34.7105
 21
-71.2235
  0
LINE
  8
0
 10
-34.7105
 20
-71.2235
 11
-34.4229
 21
-71.0146
  0
LINE
  8
0
 10
-34.4229
 20
-71.0146
 11
-34.0983
 21
-70.8701
  0
LINE
  8
0
 10
-34.0983
 20
-70.8701
 11
-33.7506
 21
-70.7962
  0
LINE
  8
0
 10
-33.7506
 20
-70.7962
 11
-33.3952
 21
-70.7962
  0
LINE
  8
0
 10
-33.3952
 20
-70.7962
 11
-33.0476
 21
-70.8701
  0
LINE
  8
0
 10
-33.0476
 20
-70.8701
 11
-32.7229
 21
-71.0146
  0
LINE
  8
0
 10
-32.7229
 20
-71.0146
 11
-32.4354
 21
-71.2235
  0
LINE
  8
0
 10
-32.4354
 20
-71.2235
 11
-32.1976
 21
-71.4876
  0
LINE
  8
0
 10
-32.1976
 20
-71.4876
 11
-32.0199
 21
-71.7954
  0
LINE
  8
0
 10
-32.0199
 20
-71.7954
 11
-31.9101
 21
-72.1334
  0
LINE
  8
0
 10
-31.9101
 20
-72.1334
 11
-31.8729
 21
-72.4868
  0
LINE
  8
0
 10
-31.8729
 20
-72.4868
 11
-31.9101
 21
-72.8403
  0
LINE
  8
0
 10
-31.9101
 20
-72.8403
 11
-32.0199
 21
-73.1783
  0
LINE
  8
0
 10
-32.0199
 20
-73.1783
 11
-32.1976
 21
-73.4861
  0
LINE
  8
0
 10
-32.1976
 20
-73.4861
 11
-32.4354
 21
-73.7502
  0
LINE
  8
0
 10
-32.4354
 20
-73.7502
 11
-32.7229
 21
-73.9591
  0
LINE
  8
0
 10
-32.7229
 20
-73.9591
 11
-33.0476
 21
-74.1036
  0
LINE
  8
0
 10
-33.0476
 20
-74.1036
 11
-33.3952
 21
-74.1775
  0
LINE
  8
0
 10
-33.3952
 20
-74.1775
 11
-33.7506
 21
-74.1775
  0
LINE
  8
0
 10
-33.7506
 20
-74.1775
 11
-34.0983
 21
-74.1036
  0
LINE
  8
0
 10
-34.0983
 20
-74.1036
 11
-34.4229
 21
-73.9591
  0
LINE
  8
0
 10
-34.4229
 20
-73.9591
 11
-34.7105
 21
-73.7502
  0
LINE
  8
0
 10
-34.7105
 20
-73.7502
 11
-34.9483
 21
-73.4861
  0
LINE
  8
0
 10
-34.9483
 20
-73.4861
 11
-35.126
 21
-73.1783
  0
LINE
  8
0
 10
-35.126
 20
-73.1783
 11
-35.2358
 21
-72.8403
  0
LINE
  8
0
 10
-35.2358
 20
-72.8403
 11
-35.2729
 21
-72.4868
  0
LINE
  8
0
 10
40.2666
 20
-44.7089
 11
40.3038
 21
-44.3555
  0
LINE
  8
0
 10
40.3038
 20
-44.3555
 11
40.4136
 21
-44.0175
  0
LINE
  8
0
 10
40.4136
 20
-44.0175
 11
40.5913
 21
-43.7097
  0
LINE
  8
0
 10
40.5913
 20
-43.7097
 11
40.8291
 21
-43.4456
  0
LINE
  8
0
 10
40.8291
 20
-43.4456
 11
41.1166
 21
-43.2367
  0
LINE
  8
0
 10
41.1166
 20
-43.2367
 11
41.4413
 21
-43.0921
  0
LINE
  8
0
 10
41.4413
 20
-43.0921
 11
41.7889
 21
-43.0182
  0
LINE
  8
0
 10
41.7889
 20
-43.0182
 11
42.1443
 21
-43.0182
  0
LINE
  8
0
 10
42.1443
 20
-43.0182
 11
42.492
 21
-43.0921
  0
LINE
  8
0
 10
42.492
 20
-43.0921
 11
42.8166
 21
-43.2367
  0
LINE
  8
0
 10
42.8166
 20
-43.2367
 11
43.1041
 21
-43.4456
  0
LINE
  8
0
 10
43.1041
 20
-43.4456
 11
43.342
 21
-43.7097
  0
LINE
  8
0
 10
43.342
 20
-43.7097
 11
43.5197
 21
-44.0175
  0
LINE
  8
0
 10
43.5197
 20
-44.0175
 11
43.6295
 21
-44.3555
  0
LINE
  8
0
 10
43.6295
 20
-44.3555
 11
43.6666
 21
-44.7089
  0
LINE
  8
0
 10
43.6666
 20
-44.7089
 11
43.6295
 21
-45.0624
  0
LINE
  8
0
 10
43.6295
 20
-45.0624
 11
43.5197
 21
-45.4004
  0
LINE
  8
0
 10
43.5197
 20
-45.4004
 11
43.342
 21
-45.7081
  0
LINE
  8
0
 10
43.342
 20
-45.7081
 11
43.1041
 21
-45.9722
  0
LINE
  8
0
 10
43.1041
 20
-45.9722
 11
42.8166
 21
-46.1811
  0
LINE
  8
0
 10
42.8166
 20
-46.1811
 11
42.492
 21
-46.3257
  0
LINE
  8
0
 10
42.492
 20
-46.3257
 11
42.1443
 21
-46.3996
  0
LINE
  8
0
 10
42.1443
 20
-46.3996
 11
41.7889
 21
-46.3996
  0
LINE
  8
0
 10
41.7889
 20
-46.3996
 11
41.4413
 21
-46.3257
  0
LINE
  8
0
 10
41.4413
 20
-46.3257
 11
41.1166
 21
-46.1811
  0
LINE
  8
0
 10
41.1166
 20
-46.1811
 11
40.8291
 21
-45.9722
  0
LINE
  8
0
 10
40.8291
 20
-45.9722
 11
40.5913
 21
-45.7081
  0
LINE
  8
0
 10
40.5913
 20
-45.7081
 11
40.4136
 21
-45.4004
  0
LINE
  8
0
 10
40.4136
 20
-45.4004
 11
40.3038
 21
-45.0624
  0
LINE
  8
0
 10
40.3038
 20
-45.0624
 11
40.2666
 21
-44.7089
  0
LINE
  8
0
 10
36.5654
 20
18.143
 11
36.6496
 21
17.3426
  0
LINE
  8
0
 10
36.6496
 20
17.3426
 11
36.8983
 21
16.5771
  0
LINE
  8
0
 10
36.8983
 20
16.5771
 11
37.3007
 21
15.8801
  0
LINE
  8
0
 10
37.3007
 20
15.8801
 11
37.8393
 21
15.2819
  0
LINE
  8
0
 10
37.8393
 20
15.2819
 11
38.4904
 21
14.8088
  0
LINE
  8
0
 10
38.4904
 20
14.8088
 11
39.2257
 21
14.4815
  0
LINE
  8
0
 10
39.2257
 20
14.4815
 11
40.013
 21
14.3141
  0
LINE
  8
0
 10
40.013
 20
14.3141
 11
40.8179
 21
14.3141
  0
LINE
  8
0
 10
40.8179
 20
14.3141
 11
41.6052
 21
14.4815
  0
LINE
  8
0
 10
41.6052
 20
14.4815
 11
42.3404
 21
14.8088
  0
LINE
  8
0
 10
42.3404
 20
14.8088
 11
42.9916
 21
15.2819
  0
LINE
  8
0
 10
42.9916
 20
15.2819
 11
43.5302
 21
15.8801
  0
LINE
  8
0
 10
43.5302
 20
15.8801
 11
43.9326
 21
16.5771
  0
LINE
  8
0
 10
43.9326
 20
16.5771
 11
44.1813
 21
17.3426
  0
LINE
  8
0
 10
44.1813
 20
17.3426
 11
44.2654
 21
18.143
  0
LINE
  8
0
 10
44.2654
 20
18.143
 11
44.1813
 21
18.9435
  0
LINE
  8
0
 10
44.1813
 20
18.9435
 11
43.9326
 21
19.709
  0
LINE
  8
0
 10
43.9326
 20
19.709
 11
43.5302
 21
20.406
  0
LINE
  8
0
 10
43.5302
 20
20.406
 11
42.9916
 21
21.0041
  0
LINE
  8
0
 10
42.9916
 20
21.0041
 11
42.3404
 21
21.4772
  0
LINE
  8
0
 10
42.3404
 20
21.4772
 11
41.6052
 21
21.8046
  0
LINE
  8
0
 10
41.6052
 20
21.8046
 11
40.8179
 21
21.9719
  0
LINE
  8
0
 10
40.8179
 20
21.9719
 11
40.013
 21
21.9719
  0
LINE
  8
0
 10
40.013
 20
21.9719
 11
39.2257
 21
21.8046
  0
LINE
  8
0
 10
39.2257
 20
21.8046
 11
38.4904
 21
21.4772
  0
LINE
  8
0
 10
38.4904
 20
21.4772
 11
37.8393
 21
21.0041
  0
LINE
  8
0
 10
37.8393
 20
21.0041
 11
37.3007
 21
20.406
  0
LINE
  8
0
 10
37.3007
 20
20.406
 11
36.8983
 21
19.709
  0
LINE
  8
0
 10
36.8983
 20
19.709
 11
36.6496
 21
18.9435
  0
LINE
  8
0
 10
36.6496
 20
18.9435
 11
36.5654
 21
18.143
  0
LINE
  8
0
 10
38.7154
 20
18.143
 11
38.7526
 21
18.4965
  0
LINE
  8
0
 10
38.7526
 20
18.4965
 11
38.8624
 21
18.8345
  0
LINE
  8
0
 10
38.8624
 20
18.8345
 11
39.0401
 21
19.1423
  0
LINE
  8
0
 10
39.0401
 20
19.1423
 11
39.2779
 21
19.4064
  0
LINE
  8
0
 10
39.2779
 20
19.4064
 11
39.5654
 21
19.6153
  0
LINE
  8
0
 10
39.5654
 20
19.6153
 11
39.8901
 21
19.7598
  0
LINE
  8
0
 10
39.8901
 20
19.7598
 11
40.2377
 21
19.8337
  0
LINE
  8
0
 10
40.2377
 20
19.8337
 11
40.5931
 21
19.8337
  0
LINE
  8
0
 10
40.5931
 20
19.8337
 11
40.9408
 21
19.7598
  0
LINE
  8
0
 10
40.9408
 20
19.7598
 11
41.2654
 21
19.6153
  0
LINE
  8
0
 10
41.2654
 20
19.6153
 11
41.553
 21
19.4064
  0
LINE
  8
0
 10
41.553
 20
19.4064
 11
41.7908
 21
19.1423
  0
LINE
  8
0
 10
41.7908
 20
19.1423
 11
41.9685
 21
18.8345
  0
LINE
  8
0
 10
41.9685
 20
18.8345
 11
42.0783
 21
18.4965
  0
LINE
  8
0
 10
42.0783
 20
18.4965
 11
42.1154
 21
18.143
  0
LINE
  8
0
 10
42.1154
 20
18.143
 11
42.0783
 21
17.7896
  0
LINE
  8
0
 10
42.0783
 20
17.7896
 11
41.9685
 21
17.4516
  0
LINE
  8
0
 10
41.9685
 20
17.4516
 11
41.7908
 21
17.1438
  0
LINE
  8
0
 10
41.7908
 20
17.1438
 11
41.553
 21
16.8797
  0
LINE
  8
0
 10
41.553
 20
16.8797
 11
41.2654
 21
16.6708
  0
LINE
  8
0
 10
41.2654
 20
16.6708
 11
40.9408
 21
16.5262
  0
LINE
  8
0
 10
40.9408
 20
16.5262
 11
40.5931
 21
16.4523
  0
LINE
  8
0
 10
40.5931
 20
16.4523
 11
40.2377
 21
16.4523
  0
LINE
  8
0
 10
40.2377
 20
16.4523
 11
39.8901
 21
16.5262
  0
LINE
  8
0
 10
39.8901
 20
16.5262
 11
39.5654
 21
16.6708
  0
LINE
  8
0
 10
39.5654
 20
16.6708
 11
39.2779
 21
16.8797
  0
LINE
  8
0
 10
39.2779
 20
16.8797
 11
39.0401
 21
17.1438
  0
LINE
  8
0
 10
39.0401
 20
17.1438
 11
38.8624
 21
17.4516
  0
LINE
  8
0
 10
38.8624
 20
17.4516
 11
38.7526
 21
17.7896
  0
LINE
  8
0
 10
38.7526
 20
17.7896
 11
38.7154
 21
18.143
  0
ENDSEC
  0
SECTION
  2
OBJECTS
  0
DICTIONARY
  0
ENDSEC
  0
EOF
